<?xml version="1.0" encoding="UTF-8" standalone="no"?>
<!DOCTYPE svg PUBLIC "-//W3C//DTD SVG 1.1//EN" "http://www.w3.org/Graphics/SVG/1.1/DTD/svg11.dtd">
<svg xmlns="http://www.w3.org/2000/svg" version="1.1" viewBox="0.00 0.00 300.00 43.00">
<path fill="#fefcf5" d="
  M 157.26 27.48
  L 161.94 22.70
  A 1.09 1.05 24.6 0 1 162.83 22.39
  L 163.19 22.43
  A 0.30 0.30 0.0 0 1 163.38 22.92
  Q 161.08 25.68 159.28 28.18
  Q 157.78 30.26 159.69 28.56
  Q 161.89 26.60 164.01 24.60
  A 0.32 0.31 -23.3 0 1 164.54 24.81
  L 164.56 25.09
  Q 164.60 25.71 164.18 26.18
  Q 162.74 27.77 161.62 29.55
  Q 161.10 30.39 161.90 29.81
  Q 165.07 27.51 167.50 24.56
  C 169.40 22.25 168.48 19.24 170.33 17.02
  Q 172.00 15.01 173.82 12.94
  Q 174.38 12.30 174.61 13.11
  C 177.55 23.13 173.72 35.08 163.41 38.12
  C 156.36 40.19 152.47 37.47 147.57 32.97
  Q 147.20 32.63 146.72 32.78
  L 142.71 34.03
  Q 141.72 34.33 142.38 33.53
  Q 146.35 28.76 150.42 24.23
  Q 151.83 22.66 153.86 22.45
  C 158.09 21.99 161.03 18.73 162.15 14.69
  C 162.93 11.87 160.63 8.39 157.40 9.80
  Q 153.75 11.38 152.17 14.28
  C 150.87 16.64 151.58 19.36 150.34 21.61
  Q 148.54 24.90 145.23 28.20
  A 0.33 0.33 0.0 0 1 144.68 28.07
  Q 140.63 16.38 147.42 7.42
  Q 151.32 2.26 157.76 1.43
  C 163.67 0.67 167.61 3.22 171.46 7.27
  A 1.41 1.39 -22.4 0 0 172.52 7.70
  Q 173.97 7.64 175.35 7.00
  Q 178.64 5.45 176.32 8.25
  Q 172.98 12.27 169.42 15.91
  C 168.60 16.74 167.53 17.35 166.32 17.34
  Q 164.44 17.31 163.42 18.57
  Q 160.17 22.57 157.07 27.32
  Q 156.37 28.39 157.26 27.48
  Z"
/>
<path fill="#fffcfa" d="
  M 53.74 18.01
  L 36.59 40.30
  Q 35.56 41.65 33.86 41.67
  L 30.69 41.70
  Q 28.98 41.71 30.01 40.35
  Q 42.81 23.35 55.00 6.93
  C 56.51 4.90 58.42 5.56 60.55 5.48
  Q 61.10 5.46 61.01 6.01
  L 57.82 26.72
  Q 57.58 28.25 58.47 26.98
  Q 65.16 17.37 71.73 7.43
  Q 73.73 4.40 77.05 5.75
  Q 77.89 6.09 77.74 6.98
  L 75.12 23.60
  Q 75.09 23.84 75.32 23.91
  Q 75.47 23.95 75.62 23.95
  Q 75.68 23.95 75.71 23.90
  Q 79.52 18.57 83.95 17.65
  C 90.32 16.33 93.08 20.32 94.46 25.76
  Q 94.76 26.96 95.24 25.82
  C 97.76 19.77 104.25 14.75 110.57 18.84
  Q 111.16 19.22 111.29 18.52
  L 112.59 11.28
  Q 112.74 10.41 113.63 10.42
  Q 116.26 10.43 116.32 10.43
  Q 117.19 10.44 117.06 11.29
  Q 114.88 25.03 112.35 40.81
  A 0.97 0.95 -1.8 0 1 111.60 41.60
  Q 109.36 42.08 107.74 40.94
  Q 107.24 40.59 106.70 40.89
  Q 99.20 45.16 94.93 37.39
  C 94.14 35.95 94.26 34.35 93.91 32.80
  Q 93.79 32.26 93.24 32.26
  L 78.96 32.29
  A 0.43 0.43 0.0 0 0 78.55 32.83
  Q 79.87 37.86 84.56 36.63
  C 87.77 35.79 87.64 32.44 92.02 33.69
  A 0.76 0.76 0.0 0 1 92.55 34.59
  C 91.28 40.20 83.33 44.21 78.22 41.12
  Q 74.68 38.96 74.25 34.97
  Q 74.00 32.59 73.44 34.92
  Q 72.70 37.98 72.37 41.02
  A 0.67 0.67 0.0 0 1 71.72 41.61
  L 67.98 41.69
  Q 67.51 41.70 67.58 41.24
  L 70.96 18.99
  Q 71.31 16.68 70.04 18.64
  Q 63.15 29.28 56.58 39.77
  C 55.03 42.25 53.43 41.60 50.98 41.67
  A 0.36 0.35 3.3 0 1 50.61 41.26
  L 54.18 18.20
  Q 54.33 17.25 53.74 18.01
  Z
  M 101.0898 36.4975
  A 7.36 5.50 115.6 0 0 109.2301 32.2365
  A 7.36 5.50 115.6 0 0 107.4502 23.2225
  A 7.36 5.50 115.6 0 0 99.3099 27.4835
  A 7.36 5.50 115.6 0 0 101.0898 36.4975
  Z
  M 80.55 26.82
  L 89.37 26.65
  A 0.13 0.13 0.0 0 0 89.49 26.52
  L 89.49 26.45
  A 4.39 3.54 -1.1 0 0 85.03 23.00
  L 84.73 23.00
  A 4.39 3.54 -1.1 0 0 80.41 26.63
  L 80.41 26.70
  A 0.13 0.13 0.0 0 0 80.55 26.82
  Z"
/>
<path fill="#fffcfa" d="
  M 196.18 27.18
  Q 196.62 26.82 196.94 26.36
  Q 202.88 17.74 210.18 6.48
  Q 210.83 5.47 212.04 5.48
  L 215.30 5.51
  Q 216.06 5.52 215.94 6.28
  L 213.22 23.05
  Q 212.92 24.95 214.09 23.42
  C 217.74 18.71 221.61 15.54 227.84 18.53
  Q 228.30 18.75 228.80 18.66
  Q 229.20 18.58 229.36 18.19
  Q 229.67 17.40 230.52 17.47
  L 232.97 17.66
  A 0.71 0.71 0.0 0 1 233.62 18.48
  L 230.12 40.78
  A 0.93 0.92 -3.5 0 1 229.45 41.53
  Q 227.07 42.20 225.28 40.80
  Q 224.98 40.57 224.65 40.75
  C 219.07 43.73 214.68 42.60 212.52 36.40
  Q 211.66 33.97 211.18 36.50
  Q 210.85 38.23 210.70 40.23
  Q 210.58 41.74 209.06 41.71
  L 207.00 41.67
  Q 205.51 41.64 205.74 40.16
  Q 207.33 30.19 208.78 20.49
  Q 208.86 19.96 208.66 19.45
  A 0.38 0.38 0.0 0 0 207.99 19.38
  Q 201.25 29.61 194.26 40.43
  C 193.20 42.07 191.11 41.75 189.45 41.66
  Q 188.64 41.61 188.76 40.81
  L 192.05 19.35
  Q 192.31 17.69 191.26 19.00
  L 173.97 40.73
  Q 173.21 41.69 171.99 41.67
  L 167.73 41.63
  Q 166.58 41.61 167.27 40.70
  L 193.39 6.09
  A 1.53 1.52 -71.1 0 1 194.60 5.49
  L 198.61 5.51
  Q 199.20 5.51 199.11 6.10
  L 195.88 27.01
  Q 195.81 27.48 196.18 27.18
  Z
  M 218.9073 36.4795
  A 7.35 5.49 115.4 0 0 227.0193 32.1949
  A 7.35 5.49 115.4 0 0 225.2127 23.2005
  A 7.35 5.49 115.4 0 0 217.1007 27.4851
  A 7.35 5.49 115.4 0 0 218.9073 36.4795
  Z"
/>
<path fill="#fefcf5" d="
  M 117.50 15.29
  L 118.24 11.33
  A 1.24 1.24 0.0 0 1 119.51 10.32
  L 121.69 10.39
  A 1.24 1.24 0.0 0 1 122.88 11.78
  L 122.42 15.70
  A 1.24 1.24 0.0 0 1 121.17 16.79
  L 118.70 16.76
  A 1.24 1.24 0.0 0 1 117.50 15.29
  Z"
/>
<path fill="#fffcfa" d="
  M 246.57 32.57
  L 245.37 40.26
  A 1.72 1.72 0.0 0 1 243.65 41.71
  L 241.76 41.69
  Q 240.32 41.68 240.52 40.26
  L 242.88 23.88
  Q 243.15 22.02 241.45 22.81
  Q 240.68 23.18 240.03 23.74
  Q 238.41 25.14 238.04 27.25
  L 235.78 40.32
  Q 235.55 41.66 234.19 41.67
  L 232.44 41.69
  Q 231.18 41.70 231.37 40.45
  L 234.82 18.32
  Q 234.91 17.77 235.45 17.61
  Q 237.58 17.02 239.25 18.02
  Q 239.74 18.31 240.28 18.15
  L 243.64 17.16
  A 0.94 0.94 0.0 0 0 244.30 16.40
  L 244.99 11.67
  A 1.56 1.56 0.0 0 1 246.58 10.34
  L 248.51 10.41
  Q 250.09 10.46 249.85 12.02
  L 248.40 21.37
  Q 247.89 24.64 249.62 21.83
  Q 250.94 19.69 252.89 17.86
  A 1.37 1.36 22.9 0 1 253.79 17.50
  L 259.78 17.48
  Q 260.30 17.48 260.39 16.96
  L 261.36 11.33
  A 1.15 1.15 0.0 0 1 262.54 10.37
  L 265.43 10.49
  Q 266.33 10.53 266.20 11.42
  L 265.38 16.90
  Q 265.29 17.50 265.90 17.49
  L 268.81 17.47
  Q 269.67 17.46 269.56 18.32
  L 269.11 21.73
  A 0.93 0.92 0.7 0 1 268.28 22.53
  L 266.13 22.74
  A 2.22 2.21 -88.1 0 0 264.15 24.60
  L 261.55 40.81
  A 1.02 1.02 0.0 0 1 260.56 41.66
  C 258.55 41.70 256.32 41.50 254.29 41.72
  Q 252.27 41.93 251.31 40.21
  Q 249.12 36.25 247.23 32.47
  Q 246.73 31.49 246.57 32.57
  Z
  M 257.06 38.31
  L 259.46 23.03
  A 0.44 0.44 0.0 0 0 258.90 22.54
  Q 258.31 22.73 257.77 22.52
  A 0.83 0.83 0.0 0 1 257.24 21.84
  L 257.16 21.13
  Q 257.00 19.81 256.22 20.89
  L 251.47 27.43
  A 1.81 1.79 49.2 0 0 251.34 29.32
  L 256.14 38.46
  Q 256.83 39.78 257.06 38.31
  Z"
/>
<path fill="#e89f99" fill-opacity="0.996" d="
  M 269.1804 15.5739
  A 2.64 2.05 93.9 0 1 267.3147 12.8006
  A 2.64 2.05 93.9 0 1 269.5396 10.3061
  A 2.64 2.05 93.9 0 1 271.4053 13.0794
  A 2.64 2.05 93.9 0 1 269.1804 15.5739
  Z
  M 269.80 13.69
  Q 269.49 13.81 269.18 13.73
  A 0.44 0.44 0.0 0 0 268.65 14.24
  Q 268.71 14.57 269.01 14.65
  Q 270.00 14.89 270.57 14.02
  A 0.35 0.34 32.1 0 0 270.45 13.53
  Q 270.08 13.31 269.93 13.58
  Q 269.88 13.66 269.80 13.69
  Z"
/>
<path fill="#fefcf5" d="
  M 121.51 24.46
  Q 122.48 23.48 123.29 22.28
  C 126.33 17.73 131.28 16.04 136.18 18.61
  Q 136.74 18.91 137.17 18.44
  Q 138.67 16.84 141.11 17.68
  A 1.25 1.24 14.0 0 1 141.94 19.06
  L 138.38 40.70
  A 0.94 0.93 85.4 0 1 137.76 41.44
  Q 135.46 42.22 133.52 40.87
  Q 133.05 40.55 132.57 40.86
  C 127.14 44.37 121.88 41.41 120.13 35.71
  Q 119.54 33.82 119.13 35.75
  Q 118.70 37.74 118.55 40.03
  Q 118.44 41.73 116.73 41.70
  L 115.05 41.66
  Q 113.46 41.62 113.70 40.05
  L 116.94 19.13
  Q 117.23 17.23 119.14 17.27
  L 120.03 17.28
  Q 122.00 17.32 121.74 19.28
  L 121.06 24.24
  Q 120.95 25.02 121.51 24.46
  Z
  M 126.9872 36.3641
  A 7.29 5.55 116.5 0 0 135.2069 32.3164
  A 7.29 5.55 116.5 0 0 133.4928 23.3159
  A 7.29 5.55 116.5 0 0 125.2731 27.3636
  A 7.29 5.55 116.5 0 0 126.9872 36.3641
  Z"
/>
</svg>
