<?xml version="1.0" encoding="UTF-8" standalone="no"?>
<!DOCTYPE svg PUBLIC "-//W3C//DTD SVG 1.1//EN" "http://www.w3.org/Graphics/SVG/1.1/DTD/svg11.dtd">
<svg xmlns="http://www.w3.org/2000/svg" version="1.1" viewBox="0.00 0.00 24.00 24.00">
<path fill="#000000" d="
  M 6.75 0.00
  L 17.34 0.00
  Q 22.99 0.67 24.00 6.10
  L 24.00 17.98
  Q 22.90 23.34 17.39 24.00
  L 6.63 24.00
  Q 0.54 23.20 0.00 16.87
  L 0.00 7.19
  Q 0.53 0.74 6.75 0.00
  Z
  M 21.82 6.80
  A 4.56 4.56 0.0 0 0 17.26 2.24
  L 6.82 2.24
  A 4.56 4.56 0.0 0 0 2.26 6.80
  L 2.26 17.22
  A 4.56 4.56 0.0 0 0 6.82 21.78
  L 17.26 21.78
  A 4.56 4.56 0.0 0 0 21.82 17.22
  L 21.82 6.80
  Z"
/>
<circle fill="#000000" cx="18.45" cy="5.61" r="1.44"/>
<path fill="#000000" d="
  M 18.23 12.01
  A 6.18 6.18 0.0 0 1 12.05 18.19
  A 6.18 6.18 0.0 0 1 5.87 12.01
  A 6.18 6.18 0.0 0 1 12.05 5.83
  A 6.18 6.18 0.0 0 1 18.23 12.01
  Z
  M 16.04 12.01
  A 3.99 3.99 0.0 0 0 12.05 8.02
  A 3.99 3.99 0.0 0 0 8.06 12.01
  A 3.99 3.99 0.0 0 0 12.05 16.00
  A 3.99 3.99 0.0 0 0 16.04 12.01
  Z"
/>
</svg>
