<?xml version="1.0" encoding="UTF-8"?>
<svg xmlns="http://www.w3.org/2000/svg" xmlns:xlink="http://www.w3.org/1999/xlink" width="100px" height="19px" viewBox="0 0 100 19" version="1.1">
<g id="surface1">
<path style=" stroke:none;fill-rule:nonzero;fill:rgb(85.490196%,85.490196%,85.490196%);fill-opacity:1;" d="M 12.730469 7.511719 L 18.960938 7.371094 C 19.09375 7.367188 19.21875 7.453125 19.261719 7.582031 C 19.304688 7.707031 19.257812 7.851562 19.148438 7.929688 L 14.019531 11.480469 C 13.90625 11.5625 13.859375 11.707031 13.910156 11.839844 L 15.96875 17.71875 C 16.023438 17.851562 15.976562 18.003906 15.863281 18.085938 C 15.746094 18.171875 15.589844 18.164062 15.480469 18.070312 L 10.53125 14.289062 C 10.417969 14.203125 10.261719 14.203125 10.148438 14.289062 L 5.199219 18.070312 C 5.089844 18.164062 4.933594 18.171875 4.816406 18.085938 C 4.703125 18.003906 4.65625 17.851562 4.710938 17.71875 L 6.769531 11.839844 C 6.820312 11.707031 6.773438 11.5625 6.660156 11.480469 L 1.53125 7.929688 C 1.421875 7.851562 1.375 7.707031 1.417969 7.582031 C 1.464844 7.453125 1.585938 7.367188 1.71875 7.371094 L 7.949219 7.511719 C 8.089844 7.511719 8.214844 7.414062 8.25 7.28125 L 10.039062 1.320312 C 10.074219 1.183594 10.199219 1.089844 10.339844 1.089844 C 10.480469 1.089844 10.605469 1.183594 10.640625 1.320312 L 12.429688 7.28125 C 12.464844 7.414062 12.589844 7.511719 12.730469 7.511719 Z M 12.730469 7.511719 "/>
<path style=" stroke:none;fill-rule:nonzero;fill:rgb(85.490196%,85.490196%,85.490196%);fill-opacity:1;" d="M 53.058594 7.511719 L 59.289062 7.371094 C 59.425781 7.367188 59.546875 7.453125 59.589844 7.582031 C 59.632812 7.707031 59.589844 7.851562 59.480469 7.929688 L 54.351562 11.480469 C 54.238281 11.5625 54.191406 11.707031 54.238281 11.839844 L 56.300781 17.71875 C 56.351562 17.851562 56.308594 18.003906 56.191406 18.085938 C 56.074219 18.171875 55.917969 18.164062 55.808594 18.070312 L 50.859375 14.289062 C 50.75 14.203125 50.59375 14.203125 50.480469 14.289062 L 45.53125 18.070312 C 45.421875 18.164062 45.265625 18.171875 45.148438 18.085938 C 45.03125 18.003906 44.988281 17.851562 45.039062 17.71875 L 47.101562 11.839844 C 47.148438 11.707031 47.105469 11.5625 46.988281 11.480469 L 41.859375 7.929688 C 41.75 7.851562 41.707031 7.707031 41.75 7.582031 C 41.792969 7.453125 41.914062 7.367188 42.050781 7.371094 L 48.28125 7.511719 C 48.421875 7.511719 48.542969 7.414062 48.578125 7.28125 L 50.371094 1.320312 C 50.40625 1.183594 50.527344 1.089844 50.671875 1.089844 C 50.8125 1.089844 50.933594 1.183594 50.96875 1.320312 L 52.761719 7.28125 C 52.796875 7.414062 52.917969 7.511719 53.058594 7.511719 Z M 53.058594 7.511719 "/>
<path style=" stroke:none;fill-rule:nonzero;fill:rgb(85.490196%,85.490196%,85.490196%);fill-opacity:1;" d="M 73.238281 7.519531 L 79.539062 7.371094 C 79.667969 7.371094 79.785156 7.453125 79.824219 7.574219 C 79.867188 7.699219 79.824219 7.832031 79.71875 7.910156 L 74.53125 11.488281 C 74.417969 11.566406 74.371094 11.710938 74.421875 11.839844 L 76.511719 17.78125 C 76.550781 17.902344 76.507812 18.039062 76.40625 18.117188 C 76.300781 18.195312 76.15625 18.195312 76.050781 18.121094 L 71.039062 14.289062 C 70.933594 14.210938 70.785156 14.210938 70.679688 14.289062 L 65.671875 18.121094 C 65.5625 18.195312 65.421875 18.195312 65.316406 18.117188 C 65.210938 18.039062 65.167969 17.902344 65.210938 17.78125 L 67.300781 11.839844 C 67.347656 11.710938 67.300781 11.566406 67.191406 11.488281 L 62 7.910156 C 61.898438 7.832031 61.855469 7.699219 61.894531 7.574219 C 61.9375 7.453125 62.050781 7.371094 62.179688 7.371094 L 68.480469 7.519531 C 68.613281 7.523438 68.730469 7.4375 68.769531 7.308594 L 70.570312 1.269531 C 70.605469 1.136719 70.722656 1.046875 70.859375 1.046875 C 70.996094 1.046875 71.113281 1.136719 71.148438 1.269531 L 72.949219 7.308594 C 72.988281 7.4375 73.109375 7.523438 73.238281 7.519531 Z M 73.238281 7.519531 "/>
<path style=" stroke:none;fill-rule:nonzero;fill:rgb(85.490196%,85.490196%,85.490196%);fill-opacity:1;" d="M 92.441406 7.53125 L 98.550781 7.328125 C 98.71875 7.320312 98.871094 7.425781 98.921875 7.585938 C 98.972656 7.746094 98.910156 7.917969 98.769531 8.011719 L 93.710938 11.441406 C 93.566406 11.535156 93.507812 11.71875 93.570312 11.878906 L 95.640625 17.628906 C 95.695312 17.785156 95.640625 17.953125 95.511719 18.050781 C 95.378906 18.148438 95.199219 18.148438 95.070312 18.050781 L 90.238281 14.300781 C 90.105469 14.191406 89.914062 14.191406 89.78125 14.300781 L 84.949219 18.050781 C 84.820312 18.148438 84.640625 18.148438 84.507812 18.050781 C 84.378906 17.953125 84.324219 17.785156 84.378906 17.628906 L 86.449219 11.878906 C 86.511719 11.71875 86.453125 11.535156 86.308594 11.441406 L 81.25 8.011719 C 81.109375 7.917969 81.046875 7.746094 81.097656 7.585938 C 81.152344 7.425781 81.304688 7.320312 81.46875 7.328125 L 87.578125 7.53125 C 87.75 7.535156 87.902344 7.425781 87.949219 7.261719 L 89.648438 1.378906 C 89.691406 1.214844 89.839844 1.09375 90.011719 1.09375 C 90.179688 1.09375 90.332031 1.214844 90.371094 1.378906 L 92.070312 7.261719 C 92.117188 7.425781 92.269531 7.535156 92.441406 7.53125 Z M 92.441406 7.53125 "/>
<path style=" stroke:none;fill-rule:nonzero;fill:rgb(85.490196%,85.490196%,85.490196%);fill-opacity:1;" d="M 32.941406 7.511719 L 38.96875 7.359375 C 39.132812 7.359375 39.273438 7.460938 39.324219 7.613281 C 39.375 7.769531 39.320312 7.9375 39.191406 8.03125 L 34.21875 11.449219 C 34.085938 11.546875 34.03125 11.722656 34.089844 11.878906 L 36.101562 17.558594 C 36.160156 17.71875 36.109375 17.894531 35.972656 17.992188 C 35.835938 18.09375 35.648438 18.085938 35.519531 17.980469 L 30.738281 14.308594 C 30.605469 14.203125 30.414062 14.203125 30.28125 14.308594 L 25.5 17.980469 C 25.371094 18.085938 25.183594 18.09375 25.046875 17.992188 C 24.910156 17.894531 24.859375 17.71875 24.921875 17.558594 L 26.929688 11.878906 C 26.988281 11.722656 26.933594 11.546875 26.800781 11.449219 L 21.828125 8.03125 C 21.699219 7.9375 21.644531 7.769531 21.695312 7.613281 C 21.746094 7.460938 21.890625 7.359375 22.050781 7.359375 L 28.078125 7.511719 C 28.246094 7.511719 28.390625 7.40625 28.441406 7.25 L 30.160156 1.46875 C 30.210938 1.320312 30.351562 1.21875 30.511719 1.21875 C 30.667969 1.21875 30.808594 1.320312 30.859375 1.46875 L 32.578125 7.25 C 32.628906 7.40625 32.777344 7.511719 32.941406 7.511719 Z M 32.941406 7.511719 "/>
</g>
</svg>
