<?xml version="1.0" encoding="UTF-8"?>
<svg xmlns="http://www.w3.org/2000/svg" xmlns:xlink="http://www.w3.org/1999/xlink" width="100px" height="19px" viewBox="0 0 100 19" version="1.1">
<g id="surface1">
<path style=" stroke:none;fill-rule:nonzero;fill:rgb(88.235294%,0%,0%);fill-opacity:1;" d="M 12.640625 7.449219 L 18.890625 7.320312 C 19.023438 7.320312 19.140625 7.40625 19.183594 7.535156 C 19.222656 7.664062 19.175781 7.800781 19.070312 7.878906 L 13.941406 11.449219 C 13.832031 11.53125 13.785156 11.671875 13.828125 11.800781 L 15.878906 17.699219 C 15.925781 17.828125 15.882812 17.972656 15.769531 18.054688 C 15.660156 18.132812 15.507812 18.132812 15.398438 18.050781 L 10.429688 14.269531 C 10.316406 14.183594 10.160156 14.183594 10.050781 14.269531 L 5.078125 18.050781 C 4.972656 18.132812 4.820312 18.132812 4.710938 18.054688 C 4.597656 17.972656 4.554688 17.828125 4.601562 17.699219 L 6.648438 11.800781 C 6.695312 11.671875 6.648438 11.53125 6.539062 11.449219 L 1.410156 7.878906 C 1.300781 7.800781 1.257812 7.664062 1.296875 7.535156 C 1.339844 7.40625 1.457031 7.320312 1.589844 7.320312 L 7.839844 7.449219 C 7.976562 7.453125 8.101562 7.363281 8.140625 7.230469 L 9.941406 1.25 C 9.976562 1.113281 10.097656 1.019531 10.238281 1.019531 C 10.382812 1.019531 10.503906 1.113281 10.539062 1.25 L 12.339844 7.230469 C 12.378906 7.363281 12.503906 7.453125 12.640625 7.449219 Z M 12.640625 7.449219 "/>
<path style=" stroke:none;fill-rule:nonzero;fill:rgb(88.235294%,0%,0%);fill-opacity:1;" d="M 32.589844 7.460938 L 38.859375 7.308594 C 39 7.304688 39.125 7.394531 39.167969 7.527344 C 39.210938 7.660156 39.15625 7.804688 39.039062 7.878906 L 33.878906 11.441406 C 33.765625 11.519531 33.722656 11.667969 33.769531 11.800781 L 35.839844 17.71875 C 35.878906 17.847656 35.832031 17.984375 35.722656 18.0625 C 35.613281 18.140625 35.46875 18.140625 35.359375 18.058594 L 30.378906 14.261719 C 30.269531 14.171875 30.113281 14.171875 30 14.261719 L 25.019531 18.058594 C 24.914062 18.140625 24.765625 18.140625 24.65625 18.0625 C 24.546875 17.984375 24.5 17.847656 24.539062 17.71875 L 26.609375 11.800781 C 26.660156 11.667969 26.613281 11.519531 26.5 11.441406 L 21.339844 7.878906 C 21.222656 7.804688 21.171875 7.660156 21.210938 7.527344 C 21.253906 7.394531 21.378906 7.304688 21.519531 7.308594 L 27.789062 7.460938 C 27.929688 7.460938 28.050781 7.371094 28.089844 7.238281 L 29.890625 1.230469 C 29.925781 1.09375 30.050781 1 30.191406 1 C 30.332031 1 30.453125 1.09375 30.488281 1.230469 L 32.289062 7.238281 C 32.328125 7.371094 32.453125 7.460938 32.589844 7.460938 Z M 32.589844 7.460938 "/>
<path style=" stroke:none;fill-rule:nonzero;fill:rgb(88.235294%,0%,0%);fill-opacity:1;" d="M 52.578125 7.449219 L 58.621094 7.328125 C 58.777344 7.324219 58.917969 7.421875 58.96875 7.570312 C 59.015625 7.71875 58.960938 7.882812 58.828125 7.96875 L 53.878906 11.429688 C 53.753906 11.519531 53.699219 11.683594 53.75 11.828125 L 55.71875 17.539062 C 55.765625 17.683594 55.714844 17.84375 55.59375 17.929688 C 55.46875 18.019531 55.300781 18.019531 55.179688 17.929688 L 50.359375 14.289062 C 50.234375 14.195312 50.0625 14.195312 49.941406 14.289062 L 45.121094 17.929688 C 44.996094 18.019531 44.832031 18.019531 44.707031 17.929688 C 44.585938 17.84375 44.535156 17.683594 44.578125 17.539062 L 46.550781 11.828125 C 46.601562 11.683594 46.546875 11.519531 46.421875 11.429688 L 41.46875 7.96875 C 41.339844 7.882812 41.285156 7.71875 41.332031 7.570312 C 41.382812 7.421875 41.523438 7.324219 41.679688 7.328125 L 47.71875 7.449219 C 47.875 7.453125 48.015625 7.351562 48.058594 7.199219 L 49.820312 1.421875 C 49.871094 1.28125 50 1.1875 50.148438 1.1875 C 50.296875 1.1875 50.429688 1.28125 50.480469 1.421875 L 52.238281 7.199219 C 52.285156 7.351562 52.421875 7.453125 52.578125 7.449219 Z M 52.578125 7.449219 "/>
<path style=" stroke:none;fill-rule:nonzero;fill:rgb(88.235294%,0%,0%);fill-opacity:1;" d="M 72.519531 7.46875 L 78.660156 7.300781 C 78.824219 7.289062 78.972656 7.390625 79.023438 7.546875 C 79.074219 7.699219 79.015625 7.871094 78.878906 7.960938 L 73.808594 11.429688 C 73.671875 11.519531 73.613281 11.695312 73.671875 11.851562 L 75.730469 17.628906 C 75.789062 17.78125 75.738281 17.953125 75.605469 18.046875 C 75.476562 18.144531 75.296875 18.140625 75.171875 18.039062 L 70.308594 14.289062 C 70.179688 14.191406 70 14.191406 69.871094 14.289062 L 65.011719 18.039062 C 64.882812 18.140625 64.703125 18.144531 64.574219 18.046875 C 64.441406 17.953125 64.390625 17.78125 64.449219 17.628906 L 66.511719 11.851562 C 66.566406 11.695312 66.507812 11.519531 66.371094 11.429688 L 61.300781 7.960938 C 61.164062 7.871094 61.105469 7.699219 61.15625 7.546875 C 61.207031 7.390625 61.355469 7.289062 61.519531 7.300781 L 67.660156 7.46875 C 67.820312 7.472656 67.964844 7.367188 68.011719 7.210938 L 69.738281 1.320312 C 69.777344 1.160156 69.921875 1.042969 70.089844 1.042969 C 70.257812 1.042969 70.402344 1.160156 70.441406 1.320312 L 72.171875 7.210938 C 72.214844 7.367188 72.359375 7.472656 72.519531 7.46875 Z M 72.519531 7.46875 "/>
<path style=" stroke:none;fill-rule:nonzero;fill:rgb(87.058824%,87.45098%,87.058824%);fill-opacity:1;" d="M 92.46875 7.480469 L 98.789062 7.308594 C 98.929688 7.304688 99.054688 7.394531 99.097656 7.527344 C 99.140625 7.660156 99.085938 7.804688 98.96875 7.878906 L 93.761719 11.460938 C 93.644531 11.539062 93.59375 11.6875 93.640625 11.820312 L 95.761719 17.78125 C 95.8125 17.914062 95.769531 18.0625 95.652344 18.148438 C 95.535156 18.230469 95.378906 18.222656 95.269531 18.128906 L 90.261719 14.28125 C 90.148438 14.191406 89.992188 14.191406 89.878906 14.28125 L 84.871094 18.128906 C 84.761719 18.222656 84.605469 18.230469 84.488281 18.148438 C 84.371094 18.0625 84.328125 17.914062 84.378906 17.78125 L 86.5 11.820312 C 86.546875 11.6875 86.496094 11.539062 86.378906 11.460938 L 81.171875 7.878906 C 81.054688 7.804688 81 7.660156 81.042969 7.527344 C 81.085938 7.394531 81.210938 7.304688 81.351562 7.308594 L 87.671875 7.480469 C 87.8125 7.484375 87.9375 7.394531 87.980469 7.261719 L 89.769531 1.199219 C 89.804688 1.0625 89.929688 0.96875 90.070312 0.96875 C 90.210938 0.96875 90.335938 1.0625 90.371094 1.199219 L 92.160156 7.261719 C 92.199219 7.394531 92.328125 7.484375 92.46875 7.480469 Z M 92.46875 7.480469 "/>
</g>
</svg>
