<?xml version="1.0" encoding="UTF-8"?>
<svg xmlns="http://www.w3.org/2000/svg" xmlns:xlink="http://www.w3.org/1999/xlink" width="100px" height="19px" viewBox="0 0 100 19" version="1.1">
<g id="surface1">
<path style=" stroke:none;fill-rule:nonzero;fill:rgb(89.411765%,0%,0%);fill-opacity:1;" d="M 13.050781 6.820312 L 19.398438 6.660156 C 19.53125 6.65625 19.652344 6.746094 19.691406 6.871094 C 19.730469 7 19.679688 7.136719 19.570312 7.210938 L 14.339844 10.800781 C 14.226562 10.878906 14.183594 11.023438 14.230469 11.148438 L 16.351562 17.140625 C 16.398438 17.265625 16.355469 17.410156 16.246094 17.492188 C 16.136719 17.570312 15.984375 17.566406 15.878906 17.480469 L 10.839844 13.609375 C 10.734375 13.53125 10.585938 13.53125 10.480469 13.609375 L 5.441406 17.480469 C 5.335938 17.566406 5.183594 17.570312 5.074219 17.492188 C 4.964844 17.410156 4.921875 17.265625 4.96875 17.140625 L 7.089844 11.148438 C 7.136719 11.023438 7.09375 10.878906 6.980469 10.800781 L 1.75 7.210938 C 1.640625 7.136719 1.589844 7 1.628906 6.871094 C 1.667969 6.746094 1.785156 6.65625 1.921875 6.660156 L 8.269531 6.820312 C 8.40625 6.828125 8.527344 6.738281 8.570312 6.609375 L 10.371094 0.519531 C 10.40625 0.386719 10.523438 0.296875 10.660156 0.296875 C 10.796875 0.296875 10.914062 0.386719 10.949219 0.519531 L 12.75 6.609375 C 12.789062 6.738281 12.914062 6.828125 13.050781 6.820312 Z M 13.050781 6.820312 "/>
<path style=" stroke:none;fill-rule:nonzero;fill:rgb(89.411765%,0%,0%);fill-opacity:1;" d="M 33.191406 6.820312 L 39.5 6.660156 C 39.632812 6.660156 39.75 6.75 39.792969 6.875 C 39.832031 7.003906 39.789062 7.140625 39.679688 7.21875 L 34.480469 10.800781 C 34.363281 10.878906 34.3125 11.027344 34.359375 11.160156 L 36.46875 17.109375 C 36.515625 17.238281 36.472656 17.382812 36.359375 17.464844 C 36.25 17.542969 36.097656 17.542969 35.988281 17.460938 L 30.980469 13.609375 C 30.867188 13.523438 30.710938 13.523438 30.601562 13.609375 L 25.589844 17.460938 C 25.480469 17.542969 25.332031 17.542969 25.21875 17.464844 C 25.109375 17.382812 25.0625 17.238281 25.109375 17.109375 L 27.21875 11.160156 C 27.265625 11.027344 27.21875 10.878906 27.101562 10.800781 L 21.898438 7.21875 C 21.792969 7.140625 21.746094 7.003906 21.789062 6.875 C 21.828125 6.75 21.945312 6.660156 22.078125 6.660156 L 28.390625 6.820312 C 28.53125 6.824219 28.660156 6.734375 28.699219 6.601562 L 30.488281 0.539062 C 30.527344 0.402344 30.648438 0.308594 30.789062 0.308594 C 30.929688 0.308594 31.054688 0.402344 31.089844 0.539062 L 32.878906 6.601562 C 32.921875 6.734375 33.046875 6.824219 33.191406 6.820312 Z M 33.191406 6.820312 "/>
<path style=" stroke:none;fill-rule:nonzero;fill:rgb(85.490196%,85.490196%,85.490196%);fill-opacity:1;" d="M 92.539062 6.851562 L 98.96875 6.601562 C 99.109375 6.59375 99.234375 6.683594 99.277344 6.816406 C 99.320312 6.949219 99.265625 7.09375 99.148438 7.171875 L 93.820312 10.769531 C 93.703125 10.847656 93.652344 10.996094 93.699219 11.128906 L 95.921875 17.171875 C 95.964844 17.300781 95.921875 17.441406 95.808594 17.523438 C 95.699219 17.605469 95.550781 17.601562 95.441406 17.519531 L 90.371094 13.558594 C 90.257812 13.472656 90.101562 13.472656 89.988281 13.558594 L 84.929688 17.539062 C 84.820312 17.632812 84.664062 17.640625 84.546875 17.558594 C 84.429688 17.472656 84.386719 17.324219 84.441406 17.191406 L 86.648438 11.140625 C 86.695312 11.007812 86.648438 10.859375 86.53125 10.78125 L 81.179688 7.199219 C 81.0625 7.125 81.011719 6.980469 81.054688 6.847656 C 81.09375 6.714844 81.21875 6.625 81.359375 6.628906 L 87.789062 6.859375 C 87.933594 6.863281 88.0625 6.769531 88.101562 6.628906 L 89.859375 0.441406 C 89.902344 0.3125 90.019531 0.226562 90.15625 0.226562 C 90.289062 0.226562 90.410156 0.3125 90.449219 0.441406 L 92.230469 6.621094 C 92.265625 6.757812 92.394531 6.855469 92.539062 6.851562 Z M 92.539062 6.851562 "/>
<path style=" stroke:none;fill-rule:nonzero;fill:rgb(85.490196%,85.490196%,85.490196%);fill-opacity:1;" d="M 53.320312 6.878906 L 59.710938 6.660156 C 59.84375 6.660156 59.960938 6.75 60 6.875 C 60.042969 7.003906 59.996094 7.140625 59.890625 7.21875 L 54.589844 10.808594 C 54.472656 10.886719 54.421875 11.035156 54.46875 11.171875 L 56.660156 17.179688 C 56.714844 17.3125 56.667969 17.464844 56.550781 17.546875 C 56.4375 17.628906 56.277344 17.625 56.171875 17.53125 L 51.128906 13.601562 C 51.019531 13.511719 50.863281 13.511719 50.75 13.601562 L 45.710938 17.53125 C 45.601562 17.625 45.445312 17.628906 45.328125 17.546875 C 45.210938 17.464844 45.167969 17.3125 45.21875 17.179688 L 47.410156 11.171875 C 47.457031 11.035156 47.40625 10.886719 47.289062 10.808594 L 41.988281 7.21875 C 41.882812 7.140625 41.835938 7.003906 41.878906 6.875 C 41.917969 6.75 42.035156 6.660156 42.171875 6.660156 L 48.558594 6.878906 C 48.703125 6.886719 48.832031 6.789062 48.871094 6.648438 L 50.640625 0.511719 C 50.675781 0.375 50.800781 0.277344 50.941406 0.277344 C 51.082031 0.277344 51.203125 0.375 51.238281 0.511719 L 53.011719 6.648438 C 53.046875 6.789062 53.175781 6.886719 53.320312 6.878906 Z M 53.320312 6.878906 "/>
<path style=" stroke:none;fill-rule:nonzero;fill:rgb(85.490196%,85.490196%,85.490196%);fill-opacity:1;" d="M 73.449219 6.851562 L 79.78125 6.648438 C 79.921875 6.640625 80.050781 6.726562 80.097656 6.859375 C 80.140625 6.996094 80.089844 7.144531 79.96875 7.21875 L 74.738281 10.789062 C 74.625 10.871094 74.582031 11.019531 74.628906 11.148438 L 76.769531 17.109375 C 76.816406 17.238281 76.769531 17.382812 76.660156 17.464844 C 76.550781 17.542969 76.398438 17.542969 76.289062 17.460938 L 71.28125 13.601562 C 71.167969 13.511719 71.011719 13.511719 70.898438 13.601562 L 65.898438 17.480469 C 65.792969 17.574219 65.632812 17.582031 65.519531 17.496094 C 65.402344 17.414062 65.355469 17.261719 65.410156 17.128906 L 67.539062 11.171875 C 67.585938 11.035156 67.539062 10.886719 67.421875 10.808594 L 62.191406 7.25 C 62.074219 7.175781 62.019531 7.03125 62.0625 6.894531 C 62.105469 6.761719 62.230469 6.675781 62.371094 6.679688 L 68.699219 6.859375 C 68.835938 6.863281 68.960938 6.773438 69 6.640625 L 70.769531 0.558594 C 70.8125 0.433594 70.929688 0.34375 71.066406 0.34375 C 71.199219 0.34375 71.320312 0.433594 71.359375 0.558594 L 73.148438 6.628906 C 73.191406 6.761719 73.3125 6.851562 73.449219 6.851562 Z M 73.449219 6.851562 "/>
</g>
</svg>
