<?xml version="1.0" encoding="UTF-8"?>
<svg xmlns="http://www.w3.org/2000/svg" xmlns:xlink="http://www.w3.org/1999/xlink" width="100px" height="19px" viewBox="0 0 100 19" version="1.1">
<g id="surface1">
<path style=" stroke:none;fill-rule:nonzero;fill:rgb(89.019608%,0%,0%);fill-opacity:1;" d="M 12.769531 7.378906 L 19.148438 7.269531 C 19.285156 7.269531 19.402344 7.359375 19.441406 7.484375 C 19.484375 7.613281 19.4375 7.75 19.328125 7.828125 L 14.109375 11.488281 C 13.996094 11.566406 13.949219 11.710938 13.988281 11.839844 L 16.070312 17.871094 C 16.117188 18 16.070312 18.144531 15.960938 18.222656 C 15.851562 18.304688 15.699219 18.304688 15.589844 18.21875 L 10.5 14.378906 C 10.386719 14.292969 10.230469 14.292969 10.121094 14.378906 L 5.03125 18.21875 C 4.921875 18.304688 4.769531 18.304688 4.660156 18.222656 C 4.550781 18.144531 4.503906 18 4.550781 17.871094 L 6.628906 11.839844 C 6.671875 11.710938 6.621094 11.566406 6.511719 11.488281 L 1.289062 7.828125 C 1.183594 7.75 1.136719 7.613281 1.179688 7.484375 C 1.21875 7.359375 1.335938 7.269531 1.46875 7.269531 L 7.851562 7.378906 C 7.988281 7.382812 8.109375 7.292969 8.148438 7.160156 L 10.011719 1.058594 C 10.046875 0.921875 10.167969 0.828125 10.308594 0.828125 C 10.449219 0.828125 10.574219 0.921875 10.609375 1.058594 L 12.46875 7.160156 C 12.511719 7.292969 12.632812 7.382812 12.769531 7.378906 Z M 12.769531 7.378906 "/>
<path style=" stroke:none;fill-rule:nonzero;fill:rgb(85.490196%,85.490196%,85.490196%);fill-opacity:1;" d="M 53.230469 7.441406 L 59.429688 7.28125 C 59.589844 7.277344 59.734375 7.382812 59.785156 7.535156 C 59.835938 7.6875 59.78125 7.855469 59.648438 7.949219 L 54.53125 11.460938 C 54.390625 11.554688 54.332031 11.730469 54.390625 11.890625 L 56.46875 17.738281 C 56.523438 17.894531 56.472656 18.066406 56.339844 18.160156 C 56.210938 18.257812 56.03125 18.257812 55.898438 18.160156 L 50.980469 14.371094 C 50.84375 14.261719 50.65625 14.261719 50.519531 14.371094 L 45.601562 18.160156 C 45.46875 18.257812 45.289062 18.257812 45.160156 18.160156 C 45.027344 18.066406 44.976562 17.894531 45.03125 17.738281 L 47.109375 11.890625 C 47.167969 11.730469 47.109375 11.554688 46.96875 11.460938 L 41.851562 7.949219 C 41.71875 7.855469 41.664062 7.6875 41.714844 7.535156 C 41.765625 7.382812 41.910156 7.277344 42.070312 7.28125 L 48.269531 7.441406 C 48.4375 7.449219 48.589844 7.339844 48.640625 7.179688 L 50.398438 1.21875 C 50.453125 1.070312 50.59375 0.96875 50.75 0.96875 C 50.90625 0.96875 51.046875 1.070312 51.101562 1.21875 L 52.859375 7.179688 C 52.910156 7.339844 53.0625 7.449219 53.230469 7.441406 Z M 53.230469 7.441406 "/>
<path style=" stroke:none;fill-rule:nonzero;fill:rgb(85.490196%,85.490196%,85.490196%);fill-opacity:1;" d="M 73.449219 7.449219 L 79.679688 7.269531 C 79.847656 7.261719 80 7.367188 80.050781 7.527344 C 80.101562 7.683594 80.039062 7.859375 79.898438 7.949219 L 74.75 11.460938 C 74.609375 11.554688 74.554688 11.730469 74.609375 11.890625 L 76.710938 17.75 C 76.769531 17.90625 76.71875 18.085938 76.582031 18.183594 C 76.445312 18.28125 76.261719 18.277344 76.128906 18.171875 L 71.210938 14.359375 C 71.074219 14.253906 70.882812 14.253906 70.75 14.359375 L 65.828125 18.171875 C 65.699219 18.277344 65.515625 18.28125 65.378906 18.183594 C 65.242188 18.085938 65.1875 17.90625 65.25 17.75 L 67.351562 11.890625 C 67.40625 11.730469 67.347656 11.554688 67.210938 11.460938 L 62.058594 7.949219 C 61.917969 7.859375 61.859375 7.683594 61.910156 7.527344 C 61.960938 7.367188 62.113281 7.261719 62.28125 7.269531 L 68.511719 7.449219 C 68.675781 7.453125 68.820312 7.347656 68.871094 7.191406 L 70.621094 1.210938 C 70.660156 1.042969 70.808594 0.925781 70.980469 0.925781 C 71.152344 0.925781 71.300781 1.042969 71.339844 1.210938 L 73.089844 7.191406 C 73.140625 7.347656 73.285156 7.453125 73.449219 7.449219 Z M 73.449219 7.449219 "/>
<path style=" stroke:none;fill-rule:nonzero;fill:rgb(85.490196%,85.490196%,85.490196%);fill-opacity:1;" d="M 92.660156 7.421875 L 98.828125 7.300781 C 98.988281 7.292969 99.128906 7.390625 99.175781 7.539062 C 99.226562 7.6875 99.167969 7.851562 99.039062 7.941406 L 93.96875 11.46875 C 93.84375 11.558594 93.789062 11.722656 93.839844 11.871094 L 95.871094 17.699219 C 95.929688 17.847656 95.882812 18.019531 95.753906 18.117188 C 95.621094 18.210938 95.441406 18.203125 95.320312 18.101562 L 90.398438 14.371094 C 90.277344 14.277344 90.105469 14.277344 89.980469 14.371094 L 85.058594 18.101562 C 84.9375 18.203125 84.757812 18.210938 84.628906 18.117188 C 84.496094 18.019531 84.449219 17.847656 84.511719 17.699219 L 86.539062 11.871094 C 86.589844 11.722656 86.539062 11.558594 86.410156 11.46875 L 81.339844 7.941406 C 81.210938 7.851562 81.152344 7.6875 81.203125 7.539062 C 81.25 7.390625 81.394531 7.292969 81.550781 7.300781 L 87.71875 7.421875 C 87.875 7.421875 88.015625 7.320312 88.058594 7.171875 L 89.859375 1.261719 C 89.910156 1.121094 90.042969 1.027344 90.191406 1.027344 C 90.339844 1.027344 90.46875 1.121094 90.519531 1.261719 L 92.320312 7.171875 C 92.363281 7.320312 92.503906 7.421875 92.660156 7.421875 Z M 92.660156 7.421875 "/>
<path style=" stroke:none;fill-rule:nonzero;fill:rgb(85.490196%,85.490196%,85.490196%);fill-opacity:1;" d="M 32.96875 7.429688 L 39.300781 7.328125 C 39.429688 7.328125 39.542969 7.414062 39.585938 7.535156 C 39.625 7.65625 39.582031 7.792969 39.480469 7.871094 L 34.289062 11.511719 C 34.179688 11.589844 34.132812 11.730469 34.179688 11.859375 L 36.238281 17.851562 C 36.28125 17.976562 36.234375 18.113281 36.128906 18.1875 C 36.019531 18.265625 35.875 18.261719 35.769531 18.179688 L 30.710938 14.378906 C 30.601562 14.300781 30.457031 14.300781 30.351562 14.378906 L 25.289062 18.179688 C 25.1875 18.261719 25.039062 18.265625 24.933594 18.1875 C 24.824219 18.113281 24.777344 17.976562 24.820312 17.851562 L 26.878906 11.859375 C 26.925781 11.730469 26.882812 11.589844 26.769531 11.511719 L 21.578125 7.871094 C 21.476562 7.792969 21.433594 7.65625 21.476562 7.535156 C 21.515625 7.414062 21.632812 7.328125 21.761719 7.328125 L 28.089844 7.429688 C 28.226562 7.4375 28.347656 7.351562 28.390625 7.21875 L 30.238281 1.171875 C 30.273438 1.039062 30.394531 0.945312 30.53125 0.945312 C 30.667969 0.945312 30.785156 1.039062 30.820312 1.171875 L 32.671875 7.21875 C 32.710938 7.351562 32.832031 7.4375 32.96875 7.429688 Z M 32.96875 7.429688 "/>
</g>
</svg>
