<?xml version="1.0" encoding="UTF-8" standalone="no"?>
<!DOCTYPE svg PUBLIC "-//W3C//DTD SVG 1.1//EN" "http://www.w3.org/Graphics/SVG/1.1/DTD/svg11.dtd">
<svg xmlns="http://www.w3.org/2000/svg" version="1.1" viewBox="0.00 0.00 24.00 24.00">
<path fill="#000000" d="
  M 10.55 0.00
  L 13.54 0.00
  Q 22.26 1.80 24.00 10.52
  L 24.00 13.49
  Q 22.44 21.03 15.88 23.36
  Q 15.28 23.57 15.28 22.94
  L 15.29 15.34
  Q 15.29 14.72 15.91 14.70
  L 17.34 14.64
  Q 17.93 14.62 18.02 14.04
  L 18.28 12.26
  Q 18.37 11.65 17.75 11.66
  L 15.96 11.68
  A 0.70 0.70 0.0 0 1 15.25 10.96
  L 15.30 9.22
  A 0.91 0.91 0.0 0 1 16.16 8.33
  L 17.86 8.24
  Q 18.42 8.21 18.43 7.64
  L 18.44 6.34
  Q 18.44 5.83 17.95 5.69
  C 13.21 4.34 12.24 7.40 12.24 11.22
  Q 12.24 11.72 11.74 11.70
  L 10.24 11.65
  Q 9.62 11.63 9.62 12.25
  L 9.60 14.01
  Q 9.59 14.68 10.26 14.68
  L 11.75 14.69
  A 0.47 0.47 0.0 0 1 12.22 15.17
  L 12.20 24.00
  L 10.43 24.00
  Q 1.73 22.20 0.00 13.47
  L 0.00 10.42
  Q 1.84 1.71 10.55 0.00
  Z"
/>
</svg>
