<?xml version="1.0" encoding="UTF-8" standalone="no"?>
<!DOCTYPE svg PUBLIC "-//W3C//DTD SVG 1.1//EN" "http://www.w3.org/Graphics/SVG/1.1/DTD/svg11.dtd">
<svg xmlns="http://www.w3.org/2000/svg" version="1.1" viewBox="0.00 0.00 24.00 24.00">
<path fill="#000000" d="
  M 10.56 0.00
  L 13.54 0.00
  Q 22.26 1.80 24.00 10.52
  L 24.00 13.58
  Q 22.16 22.32 13.45 24.00
  L 10.45 24.00
  Q 1.73 22.20 0.00 13.47
  L 0.00 10.43
  Q 1.85 1.70 10.56 0.00
  Z
  M 5.62 10.33
  L 5.21 10.40
  Q 4.79 10.48 4.89 10.89
  Q 5.15 12.02 6.10 12.61
  Q 6.53 12.88 6.42 13.36
  Q 6.15 14.66 7.38 15.08
  Q 9.61 15.85 7.34 16.52
  Q 6.60 16.74 5.77 16.76
  Q 3.01 16.81 5.63 17.68
  C 11.85 19.74 17.66 16.24 18.24 9.64
  C 18.31 8.81 18.89 7.99 19.17 7.15
  Q 19.34 6.63 18.81 6.48
  Q 18.45 6.38 18.07 6.52
  Q 17.57 6.71 17.11 6.44
  Q 14.07 4.61 12.24 7.29
  Q 11.96 7.70 11.90 8.19
  L 11.79 9.05
  Q 11.71 9.66 11.11 9.56
  Q 7.84 9.01 5.58 6.63
  A 0.41 0.41 0.0 0 0 4.88 6.82
  Q 4.49 8.62 5.75 9.91
  Q 6.07 10.24 5.62 10.33
  Z"
/>
</svg>
