<?xml version="1.0" encoding="UTF-8"?>
<svg xmlns="http://www.w3.org/2000/svg" xmlns:xlink="http://www.w3.org/1999/xlink" width="20px" height="20px" viewBox="0 0 20 20" version="1.1">
<g id="surface1">
<path style=" stroke:none;fill-rule:nonzero;fill:rgb(0%,0%,0%);fill-opacity:0.996078;" d="M 20 3.609375 L 20 4.980469 L 17.910156 11.839844 C 17.707031 12.507812 17.097656 12.960938 16.410156 12.960938 L 6.511719 12.96875 C 6.183594 12.96875 6.035156 13.136719 6.070312 13.46875 L 6.101562 13.78125 C 6.121094 14 6.238281 14.109375 6.460938 14.109375 L 17.039062 14.101562 C 17.839844 14.101562 17.960938 14.386719 17.398438 14.960938 C 17.085938 15.285156 17.066406 15.625 17.339844 15.980469 C 17.777344 16.550781 17.820312 17.332031 17.445312 17.949219 C 17.070312 18.566406 16.351562 18.890625 15.640625 18.769531 C 14.601562 18.582031 14.082031 17.933594 14.089844 16.820312 C 14.097656 16.546875 14.207031 16.324219 14.421875 16.148438 C 14.5 16.082031 14.558594 16.011719 14.601562 15.929688 C 14.8125 15.503906 14.683594 15.289062 14.210938 15.289062 L 9.269531 15.289062 C 8.617188 15.289062 8.503906 15.535156 8.929688 16.03125 C 9.542969 16.738281 9.542969 17.464844 8.929688 18.210938 C 8.390625 18.867188 7.441406 19.011719 6.730469 18.539062 C 5.691406 17.851562 5.539062 16.988281 6.28125 15.941406 C 6.632812 15.441406 6.496094 15.160156 5.871094 15.101562 C 5.808594 15.101562 5.75 15.085938 5.691406 15.058594 C 5.34375 14.933594 5.078125 14.710938 4.898438 14.390625 C 4.453125 13.589844 4.558594 12.898438 5.21875 12.308594 C 5.519531 12.042969 5.625 11.710938 5.539062 11.308594 L 3.78125 3.191406 C 3.664062 2.644531 3.132812 2.292969 2.578125 2.398438 C 1.421875 2.625 0.558594 2.503906 0 2.03125 L 0 1.398438 C 1.300781 1.09375 2.652344 1.046875 4.058594 1.261719 C 4.394531 1.308594 4.605469 1.492188 4.699219 1.820312 L 5.039062 2.960938 C 5.140625 3.300781 5.371094 3.472656 5.730469 3.480469 Z M 16.230469 11.730469 C 16.4375 11.730469 16.621094 11.589844 16.679688 11.390625 L 18.410156 5.371094 C 18.449219 5.226562 18.421875 5.074219 18.335938 4.957031 C 18.246094 4.839844 18.105469 4.769531 17.960938 4.769531 L 6.011719 4.769531 C 5.867188 4.769531 5.734375 4.835938 5.644531 4.945312 C 5.554688 5.054688 5.519531 5.199219 5.550781 5.339844 L 6.890625 11.359375 C 6.9375 11.578125 7.128906 11.730469 7.351562 11.730469 Z M 16.230469 11.730469 "/>
</g>
</svg>
