<?xml version="1.0" encoding="UTF-8" standalone="no"?>
<!DOCTYPE svg PUBLIC "-//W3C//DTD SVG 1.1//EN" "http://www.w3.org/Graphics/SVG/1.1/DTD/svg11.dtd">
<svg xmlns="http://www.w3.org/2000/svg" version="1.1" viewBox="0.00 0.00 113.00 113.00">
<path fill="#1d1d1b" d="
  M 59.45 63.05
  A 0.22 0.22 0.0 0 1 59.23 63.27
  L 54.23 63.28
  A 0.94 0.23 -0.1 0 1 53.29 63.06
  L 53.25 36.28
  A 0.94 0.23 -0.1 0 1 54.19 36.04
  L 59.19 36.04
  A 0.22 0.22 0.0 0 1 59.41 36.25
  L 59.45 63.05
  Z"
/>
<path fill="#1d1d1b" d="
  M 40.38 52.72
  Q 40.01 52.74 40.06 53.11
  L 40.85 59.18
  Q 40.88 59.34 41.04 59.34
  Q 45.58 59.25 49.86 57.85
  Q 50.12 57.77 50.13 58.04
  L 50.40 63.14
  Q 50.40 63.27 50.27 63.29
  L 36.23 64.95
  Q 35.81 65.00 35.75 64.58
  Q 34.20 52.90 32.38 41.26
  Q 32.27 40.56 31.65 38.91
  Q 31.43 38.32 32.06 38.24
  L 47.40 36.21
  A 0.52 0.51 -5.2 0 1 47.98 36.69
  L 48.25 41.23
  Q 48.27 41.60 47.90 41.57
  Q 43.39 41.17 39.01 42.29
  Q 38.58 42.41 38.64 42.85
  L 39.23 47.32
  A 0.54 0.53 -8.0 0 0 39.84 47.77
  L 46.56 46.85
  Q 46.78 46.82 46.80 47.04
  L 47.27 52.11
  A 0.16 0.16 0.0 0 1 47.12 52.29
  L 40.38 52.72
  Z"
/>
<path fill="#1d1d1b" d="
  M 70.58 48.78
  L 69.08 63.76
  Q 69.07 63.89 68.93 63.88
  L 63.51 63.39
  Q 63.42 63.38 63.43 63.29
  Q 65.50 50.16 66.52 36.90
  Q 66.56 36.41 67.05 36.45
  L 72.23 36.96
  Q 72.77 37.01 72.93 37.53
  L 77.79 53.26
  A 0.21 0.21 0.0 0 0 78.20 53.24
  L 80.71 38.53
  A 0.25 0.24 10.2 0 1 81.00 38.33
  L 86.08 39.39
  Q 86.34 39.44 86.28 39.69
  Q 83.50 51.88 81.50 62.70
  C 81.34 63.58 81.40 64.47 81.43 65.39
  Q 81.45 65.93 80.92 65.83
  L 76.61 65.00
  A 1.03 1.02 87.0 0 1 75.83 64.29
  L 71.08 48.73
  Q 70.71 47.50 70.58 48.78
  Z"
/>
<path fill="#1d1d1b" d="
  M 17.41 58.03
  Q 18.81 63.42 21.20 68.43
  Q 21.28 68.60 21.10 68.67
  L 15.26 70.69
  Q 15.09 70.74 15.04 70.57
  Q 11.45 58.06 6.67 45.95
  Q 6.62 45.82 6.75 45.77
  L 12.67 43.57
  A 0.13 0.13 0.0 0 1 12.84 43.66
  L 15.52 52.74
  Q 15.60 53.01 15.87 52.93
  L 22.07 51.15
  Q 22.27 51.10 22.20 50.90
  L 19.20 41.66
  Q 19.16 41.53 19.29 41.49
  L 25.22 39.84
  Q 25.36 39.80 25.40 39.94
  Q 28.42 52.85 32.63 65.43
  Q 32.70 65.63 32.49 65.69
  L 26.56 67.14
  Q 26.42 67.18 26.40 67.03
  Q 25.59 61.57 23.67 56.36
  A 0.34 0.33 71.5 0 0 23.26 56.15
  L 17.55 57.77
  Q 17.35 57.83 17.41 58.03
  Z"
/>
<path fill="#1d1d1b" d="
  M 99.87 48.54
  L 90.48 45.92
  Q 90.28 45.86 90.34 45.67
  L 91.80 41.00
  Q 91.89 40.71 92.18 40.81
  L 105.97 45.44
  Q 106.50 45.61 106.50 46.17
  L 106.56 50.30
  A 1.00 0.97 69.4 0 1 106.24 51.03
  L 92.73 63.03
  Q 92.38 63.34 92.81 63.53
  Q 96.75 65.29 101.04 65.64
  A 0.23 0.22 -73.1 0 1 101.21 65.97
  L 98.73 70.61
  A 0.39 0.38 -67.4 0 1 98.27 70.80
  L 85.68 66.88
  Q 85.31 66.76 85.30 66.38
  L 85.23 63.20
  A 1.42 1.41 68.4 0 1 85.69 62.13
  L 100.04 49.25
  Q 100.60 48.74 99.87 48.54
  Z"
/>
<path fill="#1d1d1b" d="
  M 40.42 73.57
  Q 40.70 73.79 41.14 73.68
  A 0.45 0.44 -29.3 0 1 41.54 73.79
  Q 41.80 74.06 41.85 74.41
  Q 41.95 75.02 41.33 74.99
  L 40.75 74.96
  A 0.36 0.36 0.0 0 0 40.44 75.52
  Q 40.52 75.64 40.60 75.76
  A 0.25 0.25 0.0 0 0 40.93 75.84
  Q 41.08 75.77 41.25 75.77
  Q 41.91 75.79 42.07 76.18
  Q 42.16 76.40 42.13 76.62
  Q 42.08 77.02 41.68 76.99
  L 39.49 76.83
  A 0.59 0.58 -87.9 0 1 38.95 76.24
  L 38.94 72.47
  Q 38.94 71.88 39.53 71.88
  L 41.90 71.85
  Q 42.37 71.84 42.17 72.26
  L 41.87 72.90
  A 0.36 0.35 18.7 0 1 41.46 73.10
  Q 40.95 72.98 40.48 73.17
  Q 40.12 73.33 40.42 73.57
  Z"
/>
<path fill="#1d1d1b" d="
  M 45.37 73.42
  Q 45.63 74.00 46.31 74.05
  Q 46.83 74.09 47.14 74.51
  Q 48.04 75.75 46.83 76.58
  Q 45.26 77.63 43.66 76.34
  A 0.38 0.37 35.2 0 1 43.57 75.85
  L 43.77 75.52
  Q 43.97 75.19 44.28 75.42
  Q 44.74 75.76 45.29 75.90
  A 0.40 0.39 66.8 0 0 45.58 75.17
  L 43.83 74.21
  A 0.62 0.61 -70.8 0 1 43.52 73.56
  Q 43.89 71.39 46.41 71.95
  A 0.79 0.74 -20.4 0 1 46.65 72.05
  Q 47.45 72.54 46.83 73.06
  A 0.57 0.56 -55.7 0 1 46.27 73.17
  L 45.76 73.00
  Q 45.09 72.77 45.37 73.42
  Z"
/>
<path fill="#1d1d1b" d="
  M 50.67 73.75
  L 50.67 76.46
  A 0.41 0.40 -2.3 0 1 50.29 76.86
  L 49.89 76.90
  A 0.59 0.59 0.0 0 1 49.25 76.30
  L 49.27 73.96
  Q 49.27 73.49 48.88 73.23
  Q 48.46 72.95 48.14 72.54
  A 0.44 0.44 0.0 0 1 48.50 71.83
  L 51.28 71.86
  A 0.50 0.50 0.0 0 1 51.73 72.57
  Q 51.53 72.97 51.09 73.14
  Q 50.68 73.30 50.67 73.75
  Z"
/>
<path fill="#1d1d1b" d="
  M 52.89 72.37
  A 0.54 0.54 0.0 0 1 53.43 71.83
  L 53.60 71.83
  A 2.25 1.54 -0.4 0 1 55.86 73.35
  L 55.86 73.69
  A 2.25 1.54 -0.4 0 1 53.62 75.25
  L 53.45 75.25
  A 0.54 0.54 0.0 0 1 52.91 74.71
  L 52.89 72.37
  Z"
/>
<path fill="#1d1d1b" d="
  M 58.97 72.57
  Q 58.64 71.93 59.35 71.87
  L 60.02 71.82
  Q 60.79 71.76 60.79 72.52
  L 60.81 76.47
  A 0.41 0.41 0.0 0 1 60.40 76.89
  L 59.91 76.89
  A 0.51 0.51 0.0 0 1 59.41 76.27
  Q 59.86 74.28 58.97 72.57
  Z"
/>
<path fill="#1d1d1b" d="
  M 65.78 74.78
  C 66.84 77.04 63.57 77.68 62.36 76.07
  Q 62.04 75.64 62.29 75.17
  Q 62.74 74.33 62.46 73.33
  Q 62.30 72.78 62.70 72.38
  C 63.94 71.13 66.39 71.84 65.72 73.96
  Q 65.59 74.38 65.78 74.78
  Z"
/>
<path fill="#1d1d1b" d="
  M 69.97 73.74
  Q 70.43 73.96 70.75 74.41
  Q 71.09 74.90 70.99 75.49
  Q 70.72 76.96 68.86 77.03
  A 1.71 1.70 8.8 0 1 67.18 74.74
  Q 67.86 72.86 69.35 71.79
  A 0.42 0.41 -6.9 0 1 69.98 72.28
  L 69.69 73.02
  Q 69.49 73.51 69.97 73.74
  Z
  M 68.84 74.53
  Q 68.13 75.19 68.79 75.83
  A 0.42 0.41 30.1 0 0 69.48 75.65
  Q 69.67 75.01 69.23 74.54
  A 0.28 0.28 0.0 0 0 68.84 74.53
  Z"
/>
<path fill="#1d1d1b" d="
  M 72.86 75.00
  C 70.51 73.79 72.64 70.95 75.04 72.12
  A 1.42 1.42 0.0 0 1 75.76 73.85
  Q 75.18 75.58 73.85 76.73
  Q 72.67 77.77 73.08 76.25
  L 73.21 75.79
  Q 73.36 75.26 72.86 75.00
  Z
  M 74.1962 73.0549
  A 0.67 0.57 -51.6 0 0 73.3333 73.2259
  A 0.67 0.57 -51.6 0 0 73.3638 74.1051
  A 0.67 0.57 -51.6 0 0 74.2267 73.9341
  A 0.67 0.57 -51.6 0 0 74.1962 73.0549
  Z"
/>
</svg>
