<?xml version="1.0" encoding="UTF-8" standalone="no"?>
<!DOCTYPE svg PUBLIC "-//W3C//DTD SVG 1.1//EN" "http://www.w3.org/Graphics/SVG/1.1/DTD/svg11.dtd">
<svg xmlns="http://www.w3.org/2000/svg" version="1.1" viewBox="0.00 0.00 1061.00 235.00">
<path fill="#e90000" d="
  M 561.00 140.66
  Q 559.26 143.21 561.71 141.33
  Q 563.57 139.91 565.88 138.33
  C 567.61 137.16 569.38 135.17 571.37 133.85
  C 573.63 132.35 575.25 130.64 577.08 128.76
  A 0.67 0.65 -72.6 0 1 577.41 128.58
  L 581.58 127.66
  Q 581.97 127.57 581.92 127.97
  Q 581.57 131.05 579.71 132.94
  Q 573.73 139.03 569.82 143.36
  A 0.49 0.49 0.0 0 0 570.12 144.18
  L 570.52 144.24
  Q 571.23 144.33 571.67 143.77
  Q 573.96 140.87 577.47 139.19
  C 579.56 138.19 580.59 136.80 582.43 135.71
  Q 590.18 131.08 594.96 123.56
  C 597.38 119.75 597.48 117.21 597.94 112.74
  C 598.70 105.41 607.87 98.31 612.97 93.75
  C 614.31 92.54 614.06 89.95 616.90 90.71
  Q 617.29 90.82 617.36 91.22
  C 617.71 93.44 618.72 95.68 619.10 97.60
  C 620.01 102.13 621.03 106.67 621.08 111.19
  C 621.22 126.93 615.90 141.70 604.73 153.06
  C 598.60 159.30 590.81 164.37 582.31 166.89
  C 573.33 169.55 562.94 171.31 553.63 169.46
  C 543.90 167.52 535.71 164.12 529.08 158.43
  C 527.02 156.65 523.04 152.48 520.45 152.03
  Q 518.26 151.64 517.47 151.95
  Q 510.25 154.81 503.43 155.44
  Q 501.95 155.58 503.05 154.59
  C 506.51 151.47 509.83 147.48 512.61 144.77
  C 518.88 138.64 524.98 132.41 531.36 126.37
  C 534.65 123.25 539.35 120.59 543.51 120.53
  C 548.30 120.46 554.45 118.58 558.55 116.06
  C 568.24 110.10 582.06 92.50 568.32 82.96
  C 564.77 80.48 562.23 79.88 557.89 81.38
  Q 550.83 83.81 548.27 85.49
  Q 540.02 90.89 536.96 96.75
  Q 534.79 100.89 534.07 108.08
  C 533.50 113.90 531.76 119.32 527.70 123.46
  C 526.34 124.85 525.27 126.53 524.03 127.77
  Q 518.72 133.05 513.40 138.32
  Q 513.08 138.64 512.83 138.27
  C 508.75 132.34 507.83 126.95 506.86 121.89
  C 505.04 112.45 506.39 103.96 508.99 94.88
  C 510.19 90.66 513.13 84.91 515.71 81.19
  C 524.39 68.70 537.75 59.46 553.00 57.24
  Q 556.24 56.76 559.47 56.27
  Q 564.11 55.56 566.51 56.01
  Q 569.54 56.58 570.73 56.70
  Q 573.49 56.97 576.24 57.34
  C 584.01 58.39 592.07 62.71 598.09 67.61
  C 599.50 68.75 600.90 69.20 602.11 70.67
  Q 605.64 74.93 610.26 75.57
  C 613.37 76.01 617.55 73.83 620.68 73.37
  Q 623.59 72.94 626.29 72.36
  Q 627.18 72.17 626.60 72.87
  C 624.66 75.23 622.90 77.78 620.59 79.85
  C 619.02 81.27 618.34 83.03 616.67 84.33
  C 614.15 86.29 612.74 89.07 609.97 90.77
  Q 609.03 91.34 608.37 92.10
  C 606.45 94.31 604.32 95.96 602.24 97.98
  C 596.99 103.09 593.15 104.19 586.26 105.17
  C 578.53 106.26 575.22 110.32 571.13 116.16
  Q 568.56 119.83 565.39 123.02
  Q 564.25 124.18 563.32 125.64
  C 561.72 128.17 559.35 129.18 558.29 131.78
  Q 558.09 132.27 557.66 132.57
  Q 554.91 134.48 553.47 137.53
  Q 553.36 137.77 553.59 137.92
  L 553.85 138.08
  A 0.70 0.70 0.0 0 0 554.78 137.90
  C 556.56 135.50 558.07 133.39 560.51 131.47
  Q 565.79 127.30 570.75 122.77
  Q 572.01 121.62 575.59 120.51
  Q 576.10 120.35 576.43 120.77
  Q 576.81 121.24 576.95 121.87
  Q 577.05 122.35 576.68 122.68
  C 574.42 124.66 573.54 127.20 570.91 128.94
  Q 570.49 129.21 570.26 129.66
  C 569.07 132.04 566.71 133.61 565.48 135.00
  Q 562.81 138.03 561.00 140.66
  Z"
/>
<path fill="#e90000" d="
  M 264.49 127.70
  Q 265.29 127.43 265.74 126.54
  C 266.57 124.92 267.98 123.78 269.16 122.41
  Q 278.99 110.91 291.00 106.97
  Q 297.77 104.75 308.18 105.60
  Q 308.54 105.63 308.87 105.80
  Q 309.16 105.94 309.49 105.96
  C 317.36 106.29 323.49 111.51 327.78 117.80
  C 330.58 121.90 332.04 127.67 333.53 132.53
  Q 334.20 134.74 335.15 132.63
  Q 341.69 118.01 355.18 110.28
  C 366.70 103.68 380.64 102.57 391.77 110.53
  Q 392.36 110.95 392.52 110.24
  L 397.90 86.16
  A 2.78 2.77 6.4 0 1 400.61 84.00
  L 411.67 84.01
  Q 412.96 84.01 413.16 85.28
  Q 413.64 88.39 412.80 92.23
  Q 410.99 100.48 409.33 108.76
  C 408.63 112.28 408.38 116.08 407.66 119.38
  C 404.95 131.85 402.69 145.35 400.47 156.93
  Q 398.76 165.89 397.24 174.88
  C 396.38 179.96 393.36 178.73 389.57 178.83
  C 385.63 178.93 382.71 178.10 379.29 176.17
  Q 378.86 175.93 378.39 176.12
  C 372.22 178.66 366.36 181.05 359.59 181.10
  C 351.11 181.15 343.28 177.04 337.85 170.59
  C 336.60 169.12 335.56 166.84 334.40 164.83
  Q 331.94 160.53 331.46 154.15
  C 331.38 153.10 330.81 152.12 331.02 150.86
  A 0.50 0.50 0.0 0 0 330.53 150.28
  L 277.24 150.29
  A 0.60 0.60 0.0 0 0 276.66 151.03
  C 276.98 152.33 276.90 153.55 277.54 154.77
  Q 278.67 156.93 279.94 158.99
  Q 281.11 160.89 283.09 161.93
  C 285.38 163.13 287.40 164.37 290.02 164.57
  C 296.59 165.06 303.57 162.95 308.28 158.23
  Q 310.85 155.65 312.26 155.05
  Q 315.54 153.65 319.13 154.27
  C 320.77 154.55 323.53 154.19 324.71 154.74
  A 2.97 2.96 24.2 0 1 326.18 158.60
  C 324.33 162.85 321.03 167.73 317.28 170.61
  Q 310.26 176.01 307.05 177.08
  Q 298.39 179.96 294.76 180.47
  C 288.42 181.35 280.52 180.13 273.65 176.32
  C 270.81 174.75 266.21 170.59 264.64 167.65
  Q 261.58 161.93 260.50 155.51
  Q 260.33 154.52 259.67 154.09
  Q 259.09 153.72 258.98 154.39
  Q 256.76 168.24 254.74 176.50
  C 254.12 179.04 250.37 179.32 248.35 178.83
  C 246.03 178.27 243.63 178.32 241.27 178.88
  Q 239.82 179.23 238.60 178.89
  Q 237.76 178.66 237.95 177.82
  C 240.23 167.14 241.75 155.50 243.60 145.89
  C 244.82 139.57 246.04 133.62 247.06 126.89
  Q 248.52 117.28 250.62 107.79
  Q 251.00 106.06 249.64 105.87
  A 1.30 1.30 0.0 0 0 248.32 106.51
  C 246.29 109.95 243.55 112.36 241.52 115.63
  C 240.59 117.14 239.26 118.38 238.36 119.64
  C 236.26 122.61 234.20 125.51 231.84 128.29
  C 230.79 129.52 230.28 130.96 229.22 132.11
  C 226.51 135.05 224.22 138.80 222.09 141.54
  Q 220.05 144.14 218.16 146.85
  C 217.09 148.38 214.72 150.86 213.43 153.10
  Q 212.60 154.55 211.60 155.66
  C 209.77 157.70 208.31 160.30 206.85 162.16
  C 203.43 166.50 200.25 171.58 196.35 175.82
  C 194.33 178.02 189.69 179.52 186.72 179.00
  C 183.59 178.46 181.52 178.47 178.75 178.50
  A 0.78 0.77 4.8 0 1 177.97 177.59
  L 190.84 105.40
  Q 190.94 104.85 190.52 105.22
  Q 188.06 107.32 186.10 110.03
  C 184.32 112.49 181.89 113.94 180.12 116.49
  C 179.14 117.91 177.81 118.67 176.82 119.82
  C 168.83 129.08 163.59 134.38 157.36 141.92
  Q 156.92 142.45 154.47 144.88
  C 153.07 146.26 152.29 147.87 150.95 149.18
  C 147.29 152.72 144.17 156.95 140.79 160.72
  Q 136.40 165.61 132.06 170.54
  Q 130.02 172.84 127.79 174.96
  Q 125.39 177.24 122.62 178.03
  C 117.03 179.63 109.99 179.07 104.20 178.95
  A 1.01 1.00 -71.1 0 1 103.42 177.34
  Q 107.20 172.24 111.54 167.29
  Q 144.18 130.04 176.55 92.55
  C 181.37 86.97 186.55 81.53 191.12 75.75
  C 194.34 71.67 197.58 68.59 203.21 68.71
  Q 208.65 68.82 214.09 68.74
  Q 214.65 68.73 214.57 69.28
  Q 214.54 69.52 214.40 69.71
  Q 214.18 70.03 214.13 70.42
  Q 212.65 82.19 210.19 93.79
  C 209.01 99.37 208.61 104.67 207.55 110.07
  Q 205.33 121.51 203.18 132.98
  Q 202.90 134.46 202.87 134.94
  Q 202.74 137.45 204.50 135.66
  C 206.90 133.21 208.68 130.29 211.16 127.63
  C 212.72 125.96 213.55 123.92 215.16 122.34
  Q 216.09 121.42 216.90 120.39
  Q 235.42 96.88 253.56 73.07
  C 257.69 67.65 265.51 68.17 271.40 69.21
  C 273.01 69.50 274.26 71.03 274.01 72.51
  Q 272.62 80.65 270.97 88.75
  C 269.78 94.57 269.10 100.77 267.97 106.24
  Q 265.88 116.30 263.91 127.20
  Q 263.77 127.94 264.49 127.70
  Z
  M 352.5126 160.8051
  A 23.51 18.69 131.4 0 0 382.0796 155.5299
  A 23.51 18.69 131.4 0 0 383.6074 125.5349
  A 23.51 18.69 131.4 0 0 354.0404 130.8101
  A 23.51 18.69 131.4 0 0 352.5126 160.8051
  Z
  M 315.72 131.97
  Q 314.10 127.78 311.26 125.19
  C 305.70 120.11 294.79 121.36 288.99 125.31
  Q 286.08 127.29 283.71 129.93
  Q 282.34 131.44 282.63 132.38
  Q 283.04 133.71 284.43 133.71
  L 314.52 133.71
  A 1.28 1.28 0.0 0 0 315.72 131.97
  Z"
/>
<path fill="#e90000" d="
  M 748.11 157.55
  C 747.51 163.45 746.14 169.24 745.39 175.24
  C 745.06 177.94 743.12 178.87 740.50 178.97
  C 735.79 179.15 732.11 179.55 729.04 177.53
  Q 728.65 177.28 728.60 176.80
  Q 728.27 173.67 728.59 172.25
  C 730.00 165.96 730.83 158.80 731.93 153.27
  C 733.66 144.61 735.18 137.11 736.63 127.30
  Q 737.59 120.87 739.00 114.50
  Q 739.41 112.68 737.77 109.39
  Q 737.53 108.92 737.20 109.32
  C 736.46 110.20 736.17 111.34 735.41 112.15
  C 732.57 115.16 730.44 118.56 727.73 121.73
  Q 726.12 123.61 724.76 125.69
  Q 723.72 127.27 721.84 129.41
  C 720.41 131.02 719.38 133.04 718.08 134.55
  C 714.94 138.20 713.22 141.25 710.51 144.38
  Q 709.52 145.53 707.97 147.94
  C 706.88 149.65 705.25 151.02 704.19 152.52
  Q 699.37 159.33 694.02 165.74
  Q 692.65 167.38 690.78 170.73
  Q 689.46 173.10 687.65 175.13
  C 682.66 180.71 674.82 178.64 668.53 178.43
  Q 668.05 178.41 668.02 177.94
  C 667.89 176.39 668.50 174.78 668.64 173.69
  C 670.26 161.59 672.80 149.85 674.71 137.65
  Q 676.02 129.31 677.80 121.04
  C 678.07 119.77 677.97 118.75 678.40 117.48
  Q 678.86 116.14 679.01 114.74
  C 679.29 112.29 680.07 110.10 680.01 107.66
  A 0.57 0.57 0.0 0 0 679.07 107.24
  C 676.05 109.83 673.35 113.47 670.56 116.37
  Q 663.45 123.75 656.78 131.51
  C 655.90 132.53 654.55 133.37 653.59 134.65
  Q 651.76 137.08 649.49 139.09
  C 648.04 140.38 647.15 142.30 646.00 143.27
  Q 643.57 145.28 642.06 147.12
  C 640.16 149.43 637.99 151.06 636.32 153.34
  C 634.69 155.57 632.51 156.94 630.92 159.18
  C 629.39 161.33 627.58 162.46 625.95 164.40
  Q 624.35 166.31 622.52 168.09
  C 620.83 169.74 619.67 171.73 618.09 173.24
  C 614.78 176.38 613.02 179.02 607.69 179.01
  Q 600.22 179.00 592.75 178.99
  A 1.29 1.29 0.0 0 1 591.51 177.34
  C 592.04 175.55 593.85 173.57 595.75 171.51
  C 597.24 169.88 598.43 167.69 600.22 165.99
  Q 601.27 164.99 602.47 163.22
  C 603.46 161.77 604.91 160.88 605.91 159.69
  Q 609.90 154.92 614.13 150.38
  C 621.45 142.53 628.34 134.31 635.63 126.45
  Q 636.00 126.05 637.07 124.43
  C 637.68 123.49 638.80 122.71 639.43 121.99
  C 647.78 112.40 656.66 102.92 664.51 92.95
  C 665.47 91.73 666.78 90.63 667.68 89.54
  Q 677.36 77.85 683.14 71.64
  Q 684.59 70.09 686.79 69.25
  Q 688.36 68.66 691.01 68.68
  Q 697.57 68.73 704.10 68.74
  Q 704.67 68.74 704.58 69.29
  Q 704.55 69.47 704.45 69.61
  Q 704.32 69.79 704.29 70.00
  L 693.00 134.95
  Q 692.66 136.90 694.21 135.65
  Q 695.85 134.32 697.34 132.09
  C 698.88 129.78 700.84 127.92 702.39 125.59
  Q 703.66 123.70 704.49 122.72
  C 709.33 116.97 713.93 110.96 718.52 105.01
  Q 728.38 92.22 738.15 79.37
  C 741.53 74.94 744.50 68.74 750.67 68.71
  Q 757.11 68.69 763.56 68.72
  Q 764.08 68.73 764.03 69.25
  Q 763.46 75.26 762.99 77.50
  Q 759.86 92.46 757.39 107.55
  C 756.80 111.18 755.66 115.32 755.04 119.26
  C 754.76 121.02 753.72 123.79 754.05 126.27
  A 0.37 0.37 0.0 0 0 754.66 126.51
  Q 757.48 124.10 759.78 121.31
  C 764.97 115.01 773.05 108.18 781.22 106.52
  C 785.05 105.75 790.34 104.47 794.22 105.15
  Q 798.13 105.84 801.99 106.82
  C 804.43 107.44 807.01 108.76 809.65 109.54
  Q 810.15 109.68 810.39 109.22
  Q 811.22 107.59 812.62 106.41
  Q 813.00 106.08 813.50 106.05
  C 815.11 105.94 816.17 105.44 817.80 105.73
  Q 820.50 106.21 823.25 105.92
  C 826.68 105.55 826.96 107.81 826.50 110.52
  Q 820.88 142.98 814.64 175.32
  C 814.10 178.09 813.19 178.77 810.49 178.93
  Q 802.58 179.41 796.67 176.25
  Q 796.24 176.02 795.77 176.19
  Q 790.65 177.99 785.52 179.58
  C 775.21 182.77 764.61 181.12 757.71 172.26
  Q 755.95 170.00 754.34 167.63
  C 752.34 164.69 751.00 160.63 748.77 157.38
  Q 748.21 156.56 748.11 157.55
  Z
  M 799.60 155.48
  C 803.31 152.25 806.84 144.04 807.07 139.51
  C 807.34 134.44 805.80 130.19 802.35 126.45
  Q 797.81 121.52 790.90 122.04
  Q 790.35 122.08 789.91 121.75
  Q 789.50 121.44 789.10 121.74
  Q 788.67 122.05 788.14 122.04
  C 778.51 121.81 771.78 129.41 767.57 137.77
  Q 765.09 142.69 764.67 146.05
  C 764.07 150.86 766.83 159.26 772.03 161.85
  C 774.22 162.94 776.21 164.19 778.65 164.44
  Q 787.00 165.28 794.35 160.32
  C 796.62 158.79 797.64 157.19 799.60 155.48
  Z"
/>
<path fill="#e90000" d="
  M 433.94 88.75
  C 433.35 92.88 433.03 96.85 432.07 100.02
  C 431.28 102.64 427.30 103.63 425.00 103.37
  C 421.89 103.00 419.52 102.96 416.67 103.01
  A 1.60 1.60 0.0 0 1 415.04 101.45
  C 414.93 96.61 416.67 91.97 417.14 87.24
  A 3.58 3.57 2.3 0 1 420.63 84.02
  Q 425.38 83.93 430.48 84.22
  Q 434.56 84.45 433.94 88.75
  Z"
/>
<path fill="#e90000" d="
  M 878.51 123.37
  Q 878.61 125.35 879.42 123.54
  C 880.28 121.59 882.30 120.56 883.27 118.56
  A 1.48 1.44 -1.7 0 1 883.93 117.88
  C 886.27 116.69 886.54 114.69 888.16 113.25
  C 889.28 112.24 890.12 111.73 890.96 110.35
  C 893.54 106.18 896.82 106.30 901.11 105.77
  C 907.20 105.03 913.91 105.51 920.07 105.50
  Q 921.46 105.50 921.83 104.16
  Q 924.23 95.34 925.05 86.25
  C 925.18 84.85 927.29 84.06 928.72 84.04
  Q 935.11 83.92 940.51 84.03
  Q 942.71 84.08 942.37 86.25
  L 939.56 104.16
  Q 939.35 105.51 940.71 105.50
  Q 944.73 105.50 949.23 105.51
  C 952.31 105.52 954.81 106.11 953.86 109.92
  C 952.88 113.84 953.04 116.76 951.99 119.60
  Q 951.82 120.06 951.36 120.25
  Q 948.55 121.40 945.48 120.96
  Q 944.98 120.89 944.50 121.06
  C 942.13 121.94 939.93 121.31 937.06 122.77
  A 1.17 1.16 -5.7 0 0 936.47 123.48
  C 935.70 126.06 934.81 128.51 934.29 131.17
  C 932.84 138.55 931.41 145.48 930.15 153.33
  Q 928.13 165.96 925.68 176.20
  C 925.18 178.29 923.52 179.00 921.39 179.00
  Q 913.15 179.00 904.92 179.00
  C 902.43 179.00 899.36 178.35 896.26 178.54
  C 891.92 178.81 889.08 174.38 886.84 170.28
  C 884.91 166.76 882.47 163.48 880.50 159.91
  C 878.57 156.40 875.98 153.13 874.16 149.47
  Q 873.78 148.71 873.55 149.52
  Q 870.03 161.68 868.82 174.50
  C 868.25 180.48 856.92 179.18 852.41 178.23
  Q 851.90 178.13 851.72 177.64
  C 851.09 175.95 851.79 174.44 851.95 173.07
  C 853.47 160.41 856.50 148.04 858.28 135.43
  Q 858.78 131.84 859.41 128.27
  Q 859.95 125.16 860.06 122.41
  A 1.34 1.33 -13.9 0 0 858.06 121.21
  Q 857.38 121.60 856.36 121.57
  C 850.67 121.44 846.17 126.51 843.91 131.06
  Q 842.59 133.72 841.64 138.91
  Q 840.14 147.24 838.22 155.47
  C 836.71 161.91 836.19 169.81 834.35 175.77
  C 832.89 180.45 823.36 179.09 819.88 178.28
  A 1.63 1.62 -78.4 0 1 818.65 176.41
  L 831.17 107.53
  A 1.73 1.71 3.6 0 1 832.78 106.12
  Q 833.60 106.08 834.26 105.69
  Q 834.72 105.43 835.23 105.57
  C 839.44 106.77 844.26 103.63 847.53 107.75
  Q 847.85 108.16 848.36 108.03
  L 863.64 104.24
  A 0.91 0.88 -1.8 0 0 864.31 103.55
  L 867.92 86.24
  A 2.85 2.84 -83.7 0 1 870.74 83.97
  C 874.15 84.01 877.60 83.94 881.10 84.14
  A 3.55 3.54 6.8 0 1 884.40 88.32
  C 882.86 96.73 881.21 105.21 879.95 113.76
  C 879.48 116.97 878.34 120.12 878.51 123.37
  Z
  M 897.63 126.65
  C 894.97 130.17 891.58 133.36 889.40 137.04
  A 3.04 3.04 0.0 0 0 889.22 139.79
  C 891.47 145.01 894.57 149.54 897.66 154.41
  Q 900.52 158.90 903.13 163.54
  C 904.59 166.14 906.92 169.00 908.35 171.90
  Q 908.89 172.99 909.18 171.81
  Q 911.50 162.36 913.08 152.73
  Q 914.95 141.39 915.87 136.86
  Q 917.46 129.00 919.05 121.04
  Q 919.17 120.43 918.58 120.62
  C 913.18 122.31 908.47 119.42 910.10 113.35
  A 0.30 0.30 0.0 0 0 909.81 112.97
  L 909.52 112.96
  A 0.89 0.89 0.0 0 0 908.69 113.53
  C 907.64 116.22 905.22 117.56 903.75 119.45
  C 901.79 121.97 899.53 124.14 897.63 126.65
  Z"
/>
<path fill="#e90000" d="
  M 422.60 156.02
  Q 422.23 154.96 421.93 156.04
  Q 419.46 164.76 418.95 173.75
  C 418.56 180.76 408.78 178.73 404.68 178.48
  C 402.28 178.34 401.12 177.15 401.51 174.75
  C 402.29 169.97 402.77 165.11 403.75 160.46
  C 406.40 147.91 408.34 135.02 410.71 122.71
  Q 412.11 115.44 413.40 108.52
  A 3.71 3.71 0.0 0 1 417.07 105.49
  L 426.91 105.53
  Q 429.89 105.54 430.01 108.52
  Q 430.05 109.28 429.78 111.48
  Q 429.12 116.91 428.19 122.30
  C 427.92 123.93 428.03 125.49 427.98 127.17
  A 1.17 1.17 0.0 0 1 427.65 127.96
  L 426.67 128.96
  Q 426.38 129.25 426.72 129.49
  L 426.97 129.66
  A 0.42 0.41 -49.6 0 0 427.50 129.61
  C 429.49 127.57 430.55 125.18 432.61 123.25
  C 434.98 121.03 436.98 118.11 439.06 116.17
  Q 446.14 109.60 453.25 106.95
  Q 458.20 105.10 465.68 104.97
  C 469.02 104.91 472.42 105.98 475.75 106.68
  C 478.35 107.23 480.55 108.64 483.11 109.53
  A 0.81 0.81 0.0 0 0 483.95 109.34
  L 486.64 106.64
  Q 486.99 106.29 487.47 106.18
  C 492.48 104.97 495.83 105.84 500.35 106.33
  Q 500.88 106.39 501.04 106.89
  Q 501.86 109.40 501.39 112.00
  C 499.95 119.90 498.32 127.83 496.76 135.70
  Q 494.95 144.87 493.09 154.04
  C 491.87 160.09 490.94 168.24 489.20 174.99
  C 488.41 178.07 486.17 178.98 483.09 179.07
  Q 476.68 179.24 470.99 176.22
  Q 470.55 175.98 470.09 176.17
  C 460.86 179.94 452.93 182.91 442.97 179.67
  Q 435.98 177.39 431.47 172.80
  Q 430.00 171.31 426.86 166.61
  C 424.67 163.31 423.84 159.69 422.60 156.02
  Z
  M 445.18 161.33
  Q 453.13 166.53 461.96 163.10
  Q 463.88 162.35 465.82 161.64
  C 470.92 159.80 475.52 154.59 478.36 150.11
  C 481.47 145.21 481.50 139.00 480.50 133.45
  C 479.75 129.26 474.93 123.84 470.79 122.79
  C 465.70 121.51 456.95 121.29 452.61 124.93
  C 450.17 126.97 447.90 128.51 445.90 130.97
  C 444.31 132.92 442.65 134.52 441.76 136.91
  C 440.07 141.45 438.48 146.36 439.51 151.12
  C 440.30 154.77 441.86 159.16 445.18 161.33
  Z"
/>
</svg>
