<?xml version="1.0" encoding="UTF-8"?>
<svg xmlns="http://www.w3.org/2000/svg" xmlns:xlink="http://www.w3.org/1999/xlink" width="11px" height="11px" viewBox="0 0 11 11" version="1.1">
<g id="surface1">
<path style=" stroke:none;fill-rule:nonzero;fill:rgb(0%,0%,0%);fill-opacity:1;" d="M 4.539062 0 L 6.464844 0 C 6.679688 0.0195312 6.835938 0.109375 6.9375 0.269531 C 7.003906 0.375 7.035156 0.484375 7.039062 0.605469 C 7.039062 0.8125 7.039062 1.03125 7.039062 1.257812 C 7.039062 1.261719 7.039062 1.261719 7.042969 1.265625 C 7.042969 1.265625 7.046875 1.265625 7.046875 1.265625 C 7.664062 1.269531 8.277344 1.269531 8.882812 1.265625 C 9.074219 1.265625 9.203125 1.273438 9.269531 1.292969 C 9.417969 1.339844 9.539062 1.425781 9.632812 1.554688 C 9.679688 1.617188 9.730469 1.734375 9.785156 1.910156 C 9.828125 2.050781 9.875 2.195312 9.929688 2.34375 C 9.972656 2.464844 9.992188 2.558594 9.992188 2.628906 C 9.988281 2.917969 9.769531 3.15625 9.476562 3.171875 C 9.421875 3.175781 9.367188 3.175781 9.316406 3.175781 C 9.3125 3.175781 9.308594 3.179688 9.308594 3.183594 C 9.121094 5.480469 8.9375 7.769531 8.753906 10.050781 C 8.730469 10.332031 8.617188 10.5625 8.421875 10.742188 C 8.246094 10.898438 8.035156 10.984375 7.785156 11 L 3.328125 11 C 3.265625 10.988281 3.199219 10.988281 3.144531 10.976562 C 2.804688 10.894531 2.523438 10.644531 2.414062 10.3125 C 2.386719 10.230469 2.367188 10.101562 2.355469 9.925781 C 2.175781 7.703125 1.992188 5.457031 1.808594 3.1875 C 1.808594 3.179688 1.804688 3.175781 1.796875 3.175781 C 1.714844 3.175781 1.625 3.175781 1.535156 3.171875 C 1.277344 3.164062 1.074219 2.984375 1.023438 2.730469 C 0.996094 2.617188 1.023438 2.5 1.058594 2.394531 C 1.117188 2.230469 1.171875 2.054688 1.230469 1.878906 C 1.28125 1.71875 1.328125 1.609375 1.378906 1.542969 C 1.46875 1.421875 1.585938 1.339844 1.726562 1.296875 C 1.796875 1.277344 1.910156 1.265625 2.0625 1.265625 C 2.710938 1.269531 3.339844 1.269531 3.953125 1.265625 C 3.960938 1.265625 3.964844 1.261719 3.964844 1.257812 C 3.964844 1.027344 3.964844 0.808594 3.964844 0.589844 C 3.96875 0.484375 4 0.378906 4.066406 0.277344 C 4.179688 0.109375 4.335938 0.015625 4.539062 0 Z M 6.394531 0.652344 C 6.394531 0.648438 6.390625 0.644531 6.386719 0.644531 L 4.617188 0.644531 C 4.613281 0.644531 4.609375 0.648438 4.609375 0.652344 L 4.609375 1.257812 C 4.609375 1.261719 4.613281 1.265625 4.617188 1.265625 L 6.386719 1.265625 C 6.390625 1.265625 6.394531 1.261719 6.394531 1.257812 Z M 9.300781 2.53125 C 9.304688 2.53125 9.304688 2.53125 9.308594 2.527344 C 9.308594 2.527344 9.308594 2.523438 9.308594 2.523438 L 9.105469 1.917969 C 9.105469 1.914062 9.101562 1.910156 9.097656 1.910156 L 1.90625 1.910156 C 1.902344 1.910156 1.898438 1.914062 1.898438 1.917969 L 1.695312 2.523438 C 1.695312 2.523438 1.695312 2.527344 1.695312 2.527344 C 1.699219 2.53125 1.699219 2.53125 1.703125 2.53125 Z M 7.894531 10.328125 C 8.011719 10.277344 8.097656 10.164062 8.109375 10.03125 C 8.292969 7.746094 8.476562 5.464844 8.660156 3.183594 C 8.660156 3.179688 8.660156 3.179688 8.660156 3.179688 C 8.660156 3.175781 8.65625 3.175781 8.65625 3.175781 L 2.460938 3.175781 C 2.460938 3.175781 2.457031 3.175781 2.457031 3.175781 C 2.457031 3.179688 2.457031 3.179688 2.457031 3.179688 C 2.636719 5.429688 2.820312 7.710938 3.007812 10.027344 C 3.019531 10.160156 3.097656 10.269531 3.222656 10.328125 C 3.265625 10.347656 3.351562 10.355469 3.488281 10.355469 C 4.929688 10.355469 6.320312 10.355469 7.65625 10.359375 C 7.769531 10.359375 7.847656 10.347656 7.894531 10.328125 Z M 7.894531 10.328125 "/>
<path style=" stroke:none;fill-rule:nonzero;fill:rgb(0%,0%,0%);fill-opacity:1;" d="M 5.5 3.558594 L 5.507812 3.558594 C 5.683594 3.558594 5.828125 3.703125 5.828125 3.878906 L 5.828125 9.691406 C 5.828125 9.867188 5.683594 10.007812 5.507812 10.007812 L 5.5 10.007812 C 5.324219 10.007812 5.183594 9.867188 5.183594 9.691406 L 5.183594 3.878906 C 5.183594 3.703125 5.324219 3.558594 5.5 3.558594 Z M 5.5 3.558594 "/>
<path style=" stroke:none;fill-rule:nonzero;fill:rgb(0%,0%,0%);fill-opacity:1;" d="M 3.585938 3.558594 L 3.59375 3.558594 C 3.769531 3.550781 3.917969 3.683594 3.929688 3.859375 L 4.242188 9.671875 C 4.253906 9.847656 4.117188 10 3.941406 10.007812 L 3.933594 10.007812 C 3.757812 10.019531 3.609375 9.882812 3.597656 9.707031 L 3.285156 3.894531 C 3.273438 3.71875 3.410156 3.570312 3.585938 3.558594 Z M 3.585938 3.558594 "/>
<path style=" stroke:none;fill-rule:nonzero;fill:rgb(0%,0%,0%);fill-opacity:1;" d="M 7.414062 3.558594 L 7.421875 3.558594 C 7.597656 3.570312 7.730469 3.71875 7.722656 3.894531 L 7.417969 9.707031 C 7.40625 9.882812 7.257812 10.019531 7.082031 10.007812 L 7.074219 10.007812 C 6.898438 10 6.765625 9.847656 6.773438 9.671875 L 7.078125 3.863281 C 7.085938 3.6875 7.238281 3.550781 7.414062 3.558594 Z M 7.414062 3.558594 "/>
</g>
</svg>
