<?xml version="1.0" encoding="UTF-8"?>
<svg xmlns="http://www.w3.org/2000/svg" xmlns:xlink="http://www.w3.org/1999/xlink" width="20px" height="20px" viewBox="0 0 20 20" version="1.1">
<g id="surface1">
<path style=" stroke:none;fill-rule:nonzero;fill:rgb(0%,0%,0%);fill-opacity:1;" d="M 8.890625 0 L 11.199219 0 C 16.53125 2.058594 16.910156 8.871094 11.128906 10.339844 C 4.75 11.96875 1.738281 2.710938 8.890625 0 Z M 14.03125 5.269531 C 14.03125 3.039062 12.222656 1.230469 9.988281 1.230469 C 7.757812 1.230469 5.949219 3.039062 5.949219 5.269531 C 5.949219 7.5 7.757812 9.308594 9.988281 9.308594 C 12.222656 9.308594 14.03125 7.5 14.03125 5.269531 Z M 14.03125 5.269531 "/>
<path style=" stroke:none;fill-rule:nonzero;fill:rgb(0%,0%,0%);fill-opacity:1;" d="M 18.679688 20 L 1.261719 20 C 1.113281 16.492188 2.511719 13.996094 5.449219 12.511719 C 7.441406 11.511719 11.609375 11.371094 13.640625 12.140625 C 17.207031 13.492188 18.886719 16.113281 18.679688 20 Z M 2.71875 18.78125 L 17.28125 18.78125 C 17.375 18.78125 17.449219 18.703125 17.449219 18.609375 L 17.449219 18.5 C 17.449219 15.417969 14.386719 12.921875 10.609375 12.921875 L 9.390625 12.921875 C 5.613281 12.921875 2.550781 15.417969 2.550781 18.5 L 2.550781 18.609375 C 2.550781 18.703125 2.625 18.78125 2.71875 18.78125 Z M 2.71875 18.78125 "/>
</g>
</svg>
