<?xml version="1.0" encoding="UTF-8"?>
<svg xmlns="http://www.w3.org/2000/svg" xmlns:xlink="http://www.w3.org/1999/xlink" width="100px" height="19px" viewBox="0 0 100 19" version="1.1">
<g id="surface1">
<path style=" stroke:none;fill-rule:nonzero;fill:rgb(88.627451%,0%,0%);fill-opacity:1;" d="M 12.761719 7.300781 L 19 7.078125 C 19.140625 7.078125 19.265625 7.167969 19.308594 7.300781 C 19.351562 7.433594 19.304688 7.578125 19.191406 7.660156 L 14.019531 11.171875 C 13.902344 11.253906 13.851562 11.402344 13.898438 11.539062 L 16.039062 17.410156 C 16.089844 17.542969 16.042969 17.695312 15.925781 17.78125 C 15.808594 17.863281 15.652344 17.859375 15.539062 17.769531 L 10.609375 13.941406 C 10.496094 13.851562 10.335938 13.851562 10.21875 13.941406 L 5.300781 17.789062 C 5.1875 17.871094 5.035156 17.871094 4.925781 17.789062 C 4.8125 17.707031 4.765625 17.5625 4.808594 17.429688 L 6.921875 11.558594 C 6.972656 11.421875 6.921875 11.261719 6.800781 11.179688 L 1.621094 7.699219 C 1.496094 7.621094 1.441406 7.46875 1.484375 7.332031 C 1.53125 7.191406 1.664062 7.101562 1.808594 7.109375 L 8.050781 7.308594 C 8.195312 7.316406 8.328125 7.222656 8.371094 7.078125 L 10.089844 1.078125 C 10.132812 0.945312 10.253906 0.855469 10.394531 0.855469 C 10.535156 0.855469 10.65625 0.945312 10.699219 1.078125 L 12.441406 7.070312 C 12.480469 7.210938 12.613281 7.304688 12.761719 7.300781 Z M 12.761719 7.300781 "/>
<path style=" stroke:none;fill-rule:nonzero;fill:rgb(88.627451%,0%,0%);fill-opacity:1;" d="M 32.808594 7.289062 L 39.011719 7.089844 C 39.15625 7.082031 39.289062 7.171875 39.332031 7.3125 C 39.378906 7.449219 39.324219 7.601562 39.199219 7.679688 L 34.070312 11.171875 C 33.949219 11.253906 33.902344 11.402344 33.949219 11.539062 L 36.050781 17.378906 C 36.109375 17.515625 36.0625 17.671875 35.945312 17.761719 C 35.828125 17.847656 35.664062 17.84375 35.550781 17.75 L 30.648438 13.941406 C 30.53125 13.847656 30.367188 13.847656 30.25 13.941406 L 25.351562 17.75 C 25.238281 17.84375 25.074219 17.847656 24.953125 17.761719 C 24.835938 17.671875 24.792969 17.515625 24.851562 17.378906 L 26.949219 11.539062 C 27 11.402344 26.949219 11.253906 26.828125 11.171875 L 21.699219 7.679688 C 21.578125 7.601562 21.523438 7.449219 21.566406 7.3125 C 21.609375 7.171875 21.746094 7.082031 21.890625 7.089844 L 28.089844 7.289062 C 28.238281 7.296875 28.367188 7.199219 28.410156 7.058594 L 30.140625 1.101562 C 30.175781 0.957031 30.304688 0.859375 30.449219 0.859375 C 30.597656 0.859375 30.722656 0.957031 30.761719 1.101562 L 32.488281 7.058594 C 32.53125 7.199219 32.664062 7.296875 32.808594 7.289062 Z M 32.808594 7.289062 "/>
<path style=" stroke:none;fill-rule:nonzero;fill:rgb(88.627451%,0%,0%);fill-opacity:1;" d="M 92.03125 7.300781 L 97.71875 7.050781 C 97.941406 7.039062 98.140625 7.179688 98.207031 7.390625 C 98.277344 7.597656 98.195312 7.828125 98.011719 7.949219 L 93.261719 11.078125 C 93.066406 11.207031 92.984375 11.453125 93.070312 11.671875 L 95.070312 16.988281 C 95.148438 17.195312 95.078125 17.429688 94.902344 17.558594 C 94.726562 17.6875 94.484375 17.6875 94.308594 17.550781 L 89.859375 14 C 89.679688 13.851562 89.421875 13.851562 89.238281 14 L 84.789062 17.550781 C 84.617188 17.6875 84.375 17.6875 84.199219 17.558594 C 84.019531 17.429688 83.953125 17.195312 84.03125 16.988281 L 86.03125 11.671875 C 86.113281 11.453125 86.035156 11.207031 85.839844 11.078125 L 81.089844 7.949219 C 80.90625 7.828125 80.824219 7.597656 80.890625 7.390625 C 80.957031 7.179688 81.160156 7.039062 81.378906 7.050781 L 87.070312 7.300781 C 87.296875 7.308594 87.5 7.160156 87.558594 6.941406 L 89.078125 1.460938 C 89.140625 1.25 89.332031 1.109375 89.550781 1.109375 C 89.765625 1.109375 89.957031 1.25 90.019531 1.460938 L 91.539062 6.941406 C 91.601562 7.160156 91.804688 7.308594 92.03125 7.300781 Z M 92.03125 7.300781 "/>
<path style=" stroke:none;fill-rule:nonzero;fill:rgb(88.627451%,0%,0%);fill-opacity:1;" d="M 52.839844 7.308594 L 59.050781 7.078125 C 59.199219 7.078125 59.335938 7.171875 59.378906 7.316406 C 59.425781 7.457031 59.375 7.613281 59.25 7.699219 L 54.089844 11.160156 C 53.960938 11.246094 53.90625 11.414062 53.960938 11.558594 L 56.101562 17.398438 C 56.15625 17.542969 56.109375 17.707031 55.984375 17.800781 C 55.859375 17.890625 55.691406 17.886719 55.570312 17.789062 L 50.679688 13.941406 C 50.558594 13.84375 50.382812 13.84375 50.261719 13.941406 L 45.371094 17.789062 C 45.25 17.886719 45.078125 17.890625 44.953125 17.800781 C 44.828125 17.707031 44.78125 17.542969 44.839844 17.398438 L 46.980469 11.558594 C 47.035156 11.414062 46.980469 11.246094 46.851562 11.160156 L 41.691406 7.699219 C 41.566406 7.613281 41.511719 7.457031 41.558594 7.316406 C 41.605469 7.171875 41.738281 7.078125 41.890625 7.078125 L 48.101562 7.308594 C 48.257812 7.316406 48.398438 7.210938 48.441406 7.058594 L 50.140625 1.078125 C 50.175781 0.929688 50.3125 0.820312 50.46875 0.820312 C 50.625 0.820312 50.761719 0.929688 50.800781 1.078125 L 52.5 7.058594 C 52.542969 7.210938 52.683594 7.316406 52.839844 7.308594 Z M 52.839844 7.308594 "/>
<path style=" stroke:none;fill-rule:nonzero;fill:rgb(88.627451%,0%,0%);fill-opacity:1;" d="M 72.898438 7.300781 L 78.980469 7.070312 C 79.148438 7.0625 79.300781 7.167969 79.351562 7.324219 C 79.402344 7.484375 79.339844 7.660156 79.199219 7.75 L 74.148438 11.140625 C 74.007812 11.234375 73.949219 11.417969 74.011719 11.578125 L 76.101562 17.289062 C 76.152344 17.445312 76.097656 17.617188 75.964844 17.710938 C 75.828125 17.808594 75.648438 17.800781 75.519531 17.699219 L 70.738281 13.949219 C 70.605469 13.84375 70.414062 13.84375 70.28125 13.949219 L 65.5 17.699219 C 65.371094 17.800781 65.191406 17.808594 65.054688 17.710938 C 64.921875 17.617188 64.867188 17.445312 64.921875 17.289062 L 67.011719 11.578125 C 67.070312 11.417969 67.015625 11.234375 66.871094 11.140625 L 61.820312 7.75 C 61.679688 7.660156 61.617188 7.484375 61.667969 7.324219 C 61.722656 7.167969 61.871094 7.0625 62.039062 7.070312 L 68.121094 7.300781 C 68.289062 7.304688 68.445312 7.195312 68.488281 7.03125 L 70.148438 1.179688 C 70.191406 1.011719 70.339844 0.894531 70.511719 0.894531 C 70.679688 0.894531 70.832031 1.011719 70.871094 1.179688 L 72.53125 7.03125 C 72.574219 7.195312 72.730469 7.304688 72.898438 7.300781 Z M 72.898438 7.300781 "/>
</g>
</svg>
