<?xml version="1.0" encoding="UTF-8"?>
<svg xmlns="http://www.w3.org/2000/svg" xmlns:xlink="http://www.w3.org/1999/xlink" width="100px" height="18px" viewBox="0 0 100 18" version="1.1">
<g id="surface1">
<path style=" stroke:none;fill-rule:nonzero;fill:rgb(89.019608%,0%,0%);fill-opacity:1;" d="M 8.578125 6.339844 L 10.429688 1.378906 C 10.476562 1.257812 10.589844 1.179688 10.71875 1.179688 C 10.847656 1.179688 10.964844 1.257812 11.011719 1.378906 L 12.691406 6.320312 C 12.734375 6.449219 12.855469 6.53125 12.988281 6.53125 L 19.5 6.421875 C 19.640625 6.414062 19.765625 6.503906 19.808594 6.636719 C 19.847656 6.769531 19.796875 6.914062 19.679688 6.988281 L 14.351562 10.378906 C 14.222656 10.460938 14.171875 10.621094 14.230469 10.761719 L 16.261719 15.941406 C 16.308594 16.066406 16.269531 16.207031 16.164062 16.292969 C 16.058594 16.378906 15.914062 16.382812 15.800781 16.308594 L 10.78125 12.96875 C 10.675781 12.902344 10.542969 12.902344 10.441406 12.96875 L 5.429688 16.320312 C 5.316406 16.402344 5.164062 16.402344 5.054688 16.316406 C 4.945312 16.226562 4.90625 16.078125 4.960938 15.949219 L 6.96875 10.78125 C 7.019531 10.640625 6.964844 10.488281 6.839844 10.410156 L 1.03125 6.878906 C 0.902344 6.808594 0.84375 6.660156 0.882812 6.523438 C 0.925781 6.382812 1.054688 6.292969 1.199219 6.300781 L 8.28125 6.539062 C 8.414062 6.542969 8.53125 6.464844 8.578125 6.339844 Z M 8.578125 6.339844 "/>
<path style=" stroke:none;fill-rule:nonzero;fill:rgb(89.019608%,0%,0%);fill-opacity:1;" d="M 47.609375 5.980469 L 49.261719 1.410156 C 49.507812 0.714844 49.753906 0.71875 50 1.421875 L 51.621094 6.121094 C 51.761719 6.535156 52.050781 6.734375 52.488281 6.71875 L 58.46875 6.578125 C 58.515625 6.574219 58.558594 6.59375 58.589844 6.628906 C 58.65625 6.695312 58.691406 6.777344 58.699219 6.871094 C 58.699219 6.949219 58.667969 7.011719 58.601562 7.058594 L 53.601562 10.210938 C 53.28125 10.410156 53.191406 10.6875 53.328125 11.039062 L 55.261719 15.941406 C 55.507812 16.566406 55.351562 16.691406 54.789062 16.320312 L 50.109375 13.199219 C 49.792969 12.988281 49.378906 12.988281 49.058594 13.199219 L 44.390625 16.339844 C 43.84375 16.707031 43.691406 16.582031 43.929688 15.96875 L 45.820312 11.109375 C 45.972656 10.695312 45.867188 10.375 45.5 10.140625 L 40.628906 7.070312 C 40.269531 6.851562 39.910156 6.851562 39.550781 7.078125 L 34.679688 10.160156 C 34.363281 10.363281 34.230469 10.765625 34.371094 11.121094 L 36.289062 16.019531 C 36.515625 16.59375 36.375 16.707031 35.859375 16.359375 L 31.050781 13.148438 C 30.75 12.949219 30.449219 12.949219 30.148438 13.148438 L 25.78125 16.078125 C 25.007812 16.601562 24.785156 16.421875 25.121094 15.550781 L 26.851562 11.03125 C 26.96875 10.722656 26.851562 10.371094 26.570312 10.191406 L 22.351562 7.511719 C 21.375 6.890625 21.464844 6.59375 22.621094 6.621094 L 27.820312 6.710938 C 28.1875 6.714844 28.433594 6.542969 28.558594 6.191406 L 30.089844 1.808594 C 30.4375 0.824219 30.78125 0.820312 31.121094 1.800781 L 32.601562 6.050781 C 32.726562 6.410156 32.980469 6.597656 33.359375 6.609375 C 37.613281 6.777344 42.125 6.746094 46.890625 6.519531 C 47.25 6.5 47.488281 6.320312 47.609375 5.980469 Z M 47.609375 5.980469 "/>
<path style=" stroke:none;fill-rule:nonzero;fill:rgb(85.882353%,85.490196%,85.882353%);fill-opacity:1;" d="M 71.898438 6.628906 L 78.050781 6.429688 C 78.183594 6.425781 78.308594 6.511719 78.351562 6.640625 C 78.394531 6.769531 78.347656 6.910156 78.238281 6.988281 L 73.128906 10.421875 C 73.007812 10.5 72.957031 10.652344 73.011719 10.789062 L 75.109375 16.570312 C 75.164062 16.703125 75.117188 16.855469 75.003906 16.9375 C 74.886719 17.019531 74.726562 17.011719 74.621094 16.921875 L 69.78125 13.121094 C 69.667969 13.035156 69.511719 13.035156 69.398438 13.121094 L 64.550781 16.898438 C 64.441406 16.984375 64.289062 16.984375 64.179688 16.902344 C 64.070312 16.824219 64.023438 16.679688 64.070312 16.550781 L 66.191406 10.769531 C 66.238281 10.636719 66.1875 10.488281 66.070312 10.410156 L 60.96875 6.960938 C 60.859375 6.878906 60.816406 6.738281 60.859375 6.609375 C 60.902344 6.480469 61.023438 6.398438 61.160156 6.398438 L 67.308594 6.628906 C 67.449219 6.628906 67.574219 6.535156 67.609375 6.398438 L 69.320312 0.488281 C 69.363281 0.363281 69.480469 0.273438 69.613281 0.273438 C 69.75 0.273438 69.867188 0.363281 69.910156 0.488281 L 71.601562 6.410156 C 71.640625 6.542969 71.761719 6.632812 71.898438 6.628906 Z M 71.898438 6.628906 "/>
<path style=" stroke:none;fill-rule:nonzero;fill:rgb(85.882353%,85.490196%,85.882353%);fill-opacity:1;" d="M 91.890625 6.640625 L 98.121094 6.398438 C 98.253906 6.394531 98.378906 6.476562 98.417969 6.605469 C 98.460938 6.734375 98.414062 6.875 98.300781 6.949219 L 93.121094 10.421875 C 93.003906 10.496094 92.953125 10.640625 93 10.769531 L 95.148438 16.621094 C 95.191406 16.742188 95.148438 16.878906 95.042969 16.957031 C 94.9375 17.035156 94.796875 17.035156 94.691406 16.960938 L 89.789062 13.109375 C 89.679688 13.019531 89.519531 13.019531 89.410156 13.109375 L 84.511719 16.960938 C 84.402344 17.035156 84.261719 17.035156 84.15625 16.957031 C 84.050781 16.878906 84.007812 16.742188 84.050781 16.621094 L 86.199219 10.769531 C 86.246094 10.640625 86.195312 10.496094 86.078125 10.421875 L 80.898438 6.949219 C 80.789062 6.875 80.738281 6.734375 80.78125 6.605469 C 80.820312 6.476562 80.945312 6.394531 81.078125 6.398438 L 87.308594 6.640625 C 87.449219 6.644531 87.574219 6.554688 87.609375 6.421875 L 89.308594 0.421875 C 89.34375 0.289062 89.464844 0.195312 89.601562 0.195312 C 89.734375 0.195312 89.855469 0.289062 89.890625 0.421875 L 91.589844 6.421875 C 91.628906 6.554688 91.75 6.644531 91.890625 6.640625 Z M 91.890625 6.640625 "/>
</g>
</svg>
