<?xml version="1.0" encoding="UTF-8" standalone="no"?>
<!DOCTYPE svg PUBLIC "-//W3C//DTD SVG 1.1//EN" "http://www.w3.org/Graphics/SVG/1.1/DTD/svg11.dtd">
<svg xmlns="http://www.w3.org/2000/svg" version="1.1" viewBox="0.00 0.00 121.00 100.00">
<g stroke-width="2.00" fill="none" stroke-linecap="butt">
<path stroke="#8496b6" vector-effect="non-scaling-stroke" d="
  M 73.88 18.84
  Q 71.95 21.94 72.84 23.33
  A 0.63 0.63 0.0 0 0 73.96 23.21
  L 74.75 21.01"
/>
<path stroke="#8ba3cc" vector-effect="non-scaling-stroke" d="
  M 84.05 30.75
  Q 81.67 33.13 78.46 33.09
  Q 77.96 33.09 78.07 33.57
  Q 79.70 40.46 74.81 45.60
  Q 74.41 46.02 74.89 46.35
  Q 77.57 48.18 79.26 50.97
  A 1.58 1.56 -6.4 0 0 80.11 51.64
  Q 82.60 52.45 84.09 54.52"
/>
<path stroke="#8496b6" vector-effect="non-scaling-stroke" d="
  M 83.86 56.84
  Q 81.04 61.56 76.07 61.68
  C 73.97 61.73 71.84 60.73 71.28 58.66
  Q 71.02 57.71 70.04 57.65
  L 58.14 56.99
  Q 57.49 56.96 57.64 57.59
  L 58.33 60.49"
/>
<path stroke="#cacbd5" vector-effect="non-scaling-stroke" d="
  M 58.33 60.49
  C 56.08 64.55 51.81 65.69 48.54 62.27
  Q 47.50 61.18 46.47 59.97"
/>
<path stroke="#8496b6" vector-effect="non-scaling-stroke" d="
  M 46.47 59.97
  Q 44.80 56.80 40.99 55.76
  Q 40.50 55.62 40.36 55.13
  L 40.00 53.91"
/>
<path stroke="#8ba3cc" vector-effect="non-scaling-stroke" d="
  M 40.00 53.91
  C 39.34 48.91 47.94 47.21 51.54 46.04
  C 52.26 45.80 52.73 45.92 53.43 45.86
  A 0.54 0.54 0.0 0 0 53.81 44.99
  Q 51.31 41.82 51.45 37.71
  A 0.60 0.60 0.0 0 0 50.67 37.11
  C 43.62 39.29 38.87 30.73 45.19 26.65
  A 0.32 0.31 27.2 0 0 45.00 26.07
  L 43.45 26.13
  A 1.06 1.04 69.0 0 1 42.57 25.73
  L 39.24 21.59"
/>
<path stroke="#e78a95" vector-effect="non-scaling-stroke" d="
  M 64.3042 18.6560
  A 1.25 1.25 0.0 0 0 62.8403 17.6649
  L 60.3462 18.1452
  A 1.25 1.25 0.0 0 0 59.3551 19.6090
  L 60.0358 23.1440
  A 1.25 1.25 0.0 0 0 61.4997 24.1351
  L 63.9938 23.6548
  A 1.25 1.25 0.0 0 0 64.9849 22.1910
  L 64.3042 18.6560"
/>
<path stroke="#7d7f81" vector-effect="non-scaling-stroke" d="
  M 70.0092 27.2157
  A 1.12 0.48 25.7 0 0 69.2082 26.2975
  A 1.12 0.48 25.7 0 0 67.9908 26.2443
  A 1.12 0.48 25.7 0 0 68.7918 27.1625
  A 1.12 0.48 25.7 0 0 70.0092 27.2157"
/>
<path stroke="#7d7f81" vector-effect="non-scaling-stroke" d="
  M 60.0134 27.6446
  A 1.58 0.45 -36.3 0 0 58.4736 28.2173
  A 1.58 0.45 -36.3 0 0 57.4666 29.5154
  A 1.58 0.45 -36.3 0 0 59.0064 28.9427
  A 1.58 0.45 -36.3 0 0 60.0134 27.6446"
/>
<path stroke="#7d7f81" vector-effect="non-scaling-stroke" d="
  M 68.08 31.80
  Q 68.60 32.86 68.64 34.03
  Q 68.66 34.66 69.25 34.85
  Q 70.50 35.26 71.30 34.20
  A 1.39 1.39 0.0 0 0 71.11 32.33
  Q 70.06 31.38 68.72 31.02
  A 0.56 0.55 -5.7 0 0 68.08 31.80"
/>
<path stroke="#7d7f81" vector-effect="non-scaling-stroke" d="
  M 59.46 33.25
  L 59.80 36.07
  A 0.45 0.45 0.0 0 0 60.31 36.46
  L 60.48 36.44
  A 2.21 1.79 -7.0 0 0 62.46 34.40
  L 62.44 34.24
  A 2.21 1.79 -7.0 0 0 60.03 32.73
  L 59.85 32.75
  A 0.45 0.45 0.0 0 0 59.46 33.25"
/>
<path stroke="#7d7f81" vector-effect="non-scaling-stroke" d="
  M 67.6973 37.5538
  A 2.10 1.25 -2.9 0 0 65.5368 36.4116
  A 2.10 1.25 -2.9 0 0 63.5027 37.7662
  A 2.10 1.25 -2.9 0 0 65.6632 38.9084
  A 2.10 1.25 -2.9 0 0 67.6973 37.5538"
/>
<path stroke="#e4d0ce" vector-effect="non-scaling-stroke" d="
  M 62.83 43.89
  L 64.49 46.59
  A 1.42 1.41 82.0 0 0 65.31 47.21
  Q 67.96 47.93 69.15 44.98
  Q 69.93 43.06 69.87 42.45"
/>
<path stroke="#7d7f81" vector-effect="non-scaling-stroke" d="
  M 69.87 42.45
  Q 64.90 41.16 62.83 43.89"
/>
<path stroke="#6f5d5a" vector-effect="non-scaling-stroke" d="
  M 69.87 42.45
  Q 67.38 44.64 62.83 43.89"
/>
<path stroke="#d9686d" vector-effect="non-scaling-stroke" d="
  M 62.4590 23.0407
  A 2.03 1.18 82.1 0 0 63.3488 20.8678
  A 2.03 1.18 82.1 0 0 61.9010 19.0193
  A 2.03 1.18 82.1 0 0 61.0112 21.1922
  A 2.03 1.18 82.1 0 0 62.4590 23.0407"
/>
<path stroke="#1d478d" vector-effect="non-scaling-stroke" d="
  M 40.00 53.91
  Q 39.86 53.95 39.73 53.98"
/>
<path stroke="#5c6f96" vector-effect="non-scaling-stroke" d="
  M 46.47 59.97
  L 46.43 61.46"
/>
<path stroke="#5c6f96" vector-effect="non-scaling-stroke" d="
  M 60.03 61.86
  Q 59.02 61.58 58.33 60.49"
/>
<path stroke="#bf6374" vector-effect="non-scaling-stroke" d="
  M 59.36 65.75
  Q 60.01 66.82 57.03 66.79"
/>
<path stroke="#bf6374" vector-effect="non-scaling-stroke" d="
  M 51.39 66.88
  Q 47.84 67.46 48.45 65.79"
/>
</g>
<path fill="#f2f2f5" d="
  M 69.13 0.00
  L 74.14 0.00
  C 83.48 3.65 82.43 15.90 73.88 18.84
  Q 71.95 21.94 72.84 23.33
  A 0.63 0.63 0.0 0 0 73.96 23.21
  L 74.75 21.01
  C 78.09 21.04 81.74 20.37 83.02 24.48
  Q 83.52 26.10 84.05 30.75
  Q 81.67 33.13 78.46 33.09
  Q 77.96 33.09 78.07 33.57
  Q 79.70 40.46 74.81 45.60
  Q 74.41 46.02 74.89 46.35
  Q 77.57 48.18 79.26 50.97
  A 1.58 1.56 -6.4 0 0 80.11 51.64
  Q 82.60 52.45 84.09 54.52
  L 83.86 56.84
  Q 81.04 61.56 76.07 61.68
  C 73.97 61.73 71.84 60.73 71.28 58.66
  Q 71.02 57.71 70.04 57.65
  L 58.14 56.99
  Q 57.49 56.96 57.64 57.59
  L 58.33 60.49
  C 56.08 64.55 51.81 65.69 48.54 62.27
  Q 47.50 61.18 46.47 59.97
  Q 44.80 56.80 40.99 55.76
  Q 40.50 55.62 40.36 55.13
  L 40.00 53.91
  C 39.34 48.91 47.94 47.21 51.54 46.04
  C 52.26 45.80 52.73 45.92 53.43 45.86
  A 0.54 0.54 0.0 0 0 53.81 44.99
  Q 51.31 41.82 51.45 37.71
  A 0.60 0.60 0.0 0 0 50.67 37.11
  C 43.62 39.29 38.87 30.73 45.19 26.65
  A 0.32 0.31 27.2 0 0 45.00 26.07
  L 43.45 26.13
  A 1.06 1.04 69.0 0 1 42.57 25.73
  L 39.24 21.59
  Q 38.74 16.75 42.73 13.45
  Q 44.32 12.14 48.68 10.74
  C 56.17 8.35 62.37 2.76 69.13 0.00
  Z
  M 64.3042 18.6560
  A 1.25 1.25 0.0 0 0 62.8403 17.6649
  L 60.3462 18.1452
  A 1.25 1.25 0.0 0 0 59.3551 19.6090
  L 60.0358 23.1440
  A 1.25 1.25 0.0 0 0 61.4997 24.1351
  L 63.9938 23.6548
  A 1.25 1.25 0.0 0 0 64.9849 22.1910
  L 64.3042 18.6560
  Z
  M 70.0092 27.2157
  A 1.12 0.48 25.7 0 0 69.2082 26.2975
  A 1.12 0.48 25.7 0 0 67.9908 26.2443
  A 1.12 0.48 25.7 0 0 68.7918 27.1625
  A 1.12 0.48 25.7 0 0 70.0092 27.2157
  Z
  M 60.0134 27.6446
  A 1.58 0.45 -36.3 0 0 58.4736 28.2173
  A 1.58 0.45 -36.3 0 0 57.4666 29.5154
  A 1.58 0.45 -36.3 0 0 59.0064 28.9427
  A 1.58 0.45 -36.3 0 0 60.0134 27.6446
  Z
  M 68.08 31.80
  Q 68.60 32.86 68.64 34.03
  Q 68.66 34.66 69.25 34.85
  Q 70.50 35.26 71.30 34.20
  A 1.39 1.39 0.0 0 0 71.11 32.33
  Q 70.06 31.38 68.72 31.02
  A 0.56 0.55 -5.7 0 0 68.08 31.80
  Z
  M 59.46 33.25
  L 59.80 36.07
  A 0.45 0.45 0.0 0 0 60.31 36.46
  L 60.48 36.44
  A 2.21 1.79 -7.0 0 0 62.46 34.40
  L 62.44 34.24
  A 2.21 1.79 -7.0 0 0 60.03 32.73
  L 59.85 32.75
  A 0.45 0.45 0.0 0 0 59.46 33.25
  Z
  M 67.6973 37.5538
  A 2.10 1.25 -2.9 0 0 65.5368 36.4116
  A 2.10 1.25 -2.9 0 0 63.5027 37.7662
  A 2.10 1.25 -2.9 0 0 65.6632 38.9084
  A 2.10 1.25 -2.9 0 0 67.6973 37.5538
  Z
  M 62.83 43.89
  L 64.49 46.59
  A 1.42 1.41 82.0 0 0 65.31 47.21
  Q 67.96 47.93 69.15 44.98
  Q 69.93 43.06 69.87 42.45
  Q 64.90 41.16 62.83 43.89
  Z"
/>
<path fill="#db2134" d="
  M 64.9849 22.1910
  A 1.25 1.25 0.0 0 1 63.9938 23.6548
  L 61.4997 24.1351
  A 1.25 1.25 0.0 0 1 60.0358 23.1440
  L 59.3551 19.6090
  A 1.25 1.25 0.0 0 1 60.3462 18.1452
  L 62.8403 17.6649
  A 1.25 1.25 0.0 0 1 64.3042 18.6560
  L 64.9849 22.1910
  Z
  M 62.4590 23.0407
  A 2.03 1.18 82.1 0 0 63.3488 20.8678
  A 2.03 1.18 82.1 0 0 61.9010 19.0193
  A 2.03 1.18 82.1 0 0 61.0112 21.1922
  A 2.03 1.18 82.1 0 0 62.4590 23.0407
  Z"
/>
<ellipse fill="#d6aea6" cx="0.00" cy="0.00" transform="translate(62.18,21.03) rotate(82.1)" rx="2.03" ry="1.18"/>
<path fill="#163a77" d="
  M 73.88 18.84
  Q 73.24 20.04 74.75 21.01
  L 73.96 23.21
  A 0.63 0.63 0.0 0 1 72.84 23.33
  Q 71.95 21.94 73.88 18.84
  Z"
/>
<path fill="#2353a3" d="
  M 39.24 21.59
  L 42.57 25.73
  A 1.06 1.04 69.0 0 0 43.45 26.13
  L 45.00 26.07
  A 0.32 0.31 27.2 0 1 45.19 26.65
  C 38.87 30.73 43.62 39.29 50.67 37.11
  A 0.60 0.60 0.0 0 1 51.45 37.71
  Q 51.31 41.82 53.81 44.99
  A 0.54 0.54 0.0 0 1 53.43 45.86
  C 52.73 45.92 52.26 45.80 51.54 46.04
  C 47.94 47.21 39.34 48.91 40.00 53.91
  Q 39.86 53.95 39.73 53.98
  C 37.69 45.80 35.97 40.35 39.80 32.21
  Q 40.91 29.84 42.10 27.50
  Q 42.34 27.03 41.97 26.65
  Q 40.14 24.76 39.24 21.59
  Z"
/>
<ellipse fill="#080b0d" cx="0.00" cy="0.00" transform="translate(69.00,26.73) rotate(25.7)" rx="1.12" ry="0.48"/>
<ellipse fill="#080b0d" cx="0.00" cy="0.00" transform="translate(58.74,28.58) rotate(-36.3)" rx="1.58" ry="0.45"/>
<path fill="#2353a3" d="
  M 84.05 30.75
  Q 89.74 42.54 84.09 54.52
  Q 82.60 52.45 80.11 51.64
  A 1.58 1.56 -6.4 0 1 79.26 50.97
  Q 77.57 48.18 74.89 46.35
  Q 74.41 46.02 74.81 45.60
  Q 79.70 40.46 78.07 33.57
  Q 77.96 33.09 78.46 33.09
  Q 81.67 33.13 84.05 30.75
  Z"
/>
<path fill="#080b0d" d="
  M 68.08 31.80
  A 0.56 0.55 -5.7 0 1 68.72 31.02
  Q 70.06 31.38 71.11 32.33
  A 1.39 1.39 0.0 0 1 71.30 34.20
  Q 70.50 35.26 69.25 34.85
  Q 68.66 34.66 68.64 34.03
  Q 68.60 32.86 68.08 31.80
  Z"
/>
<path fill="#080b0d" d="
  M 59.46 33.25
  A 0.45 0.45 0.0 0 1 59.85 32.75
  L 60.03 32.73
  A 2.21 1.79 -7.0 0 1 62.44 34.24
  L 62.46 34.40
  A 2.21 1.79 -7.0 0 1 60.48 36.44
  L 60.31 36.46
  A 0.45 0.45 0.0 0 1 59.80 36.07
  L 59.46 33.25
  Z"
/>
<ellipse fill="#080b0d" cx="0.00" cy="0.00" transform="translate(65.60,37.66) rotate(-2.9)" rx="2.10" ry="1.25"/>
<path fill="#080b0d" d="
  M 69.87 42.45
  Q 67.38 44.64 62.83 43.89
  Q 64.90 41.16 69.87 42.45
  Z"
/>
<path fill="#d6aea6" d="
  M 69.87 42.45
  Q 69.93 43.06 69.15 44.98
  Q 67.96 47.93 65.31 47.21
  A 1.42 1.41 82.0 0 1 64.49 46.59
  L 62.83 43.89
  Q 67.38 44.64 69.87 42.45
  Z"
/>
<path fill="#163a77" d="
  M 39.73 53.98
  Q 39.86 53.95 40.00 53.91
  L 40.36 55.13
  Q 40.50 55.62 40.99 55.76
  Q 44.80 56.80 46.47 59.97
  L 46.43 61.46
  Q 45.48 60.34 43.00 60.18
  C 29.96 59.38 13.24 57.69 1.43 64.65
  Q 0.71 65.07 1.16 64.37
  Q 2.50 62.27 4.76 61.01
  C 15.49 55.02 27.16 55.26 39.08 56.08
  A 0.88 0.88 0.0 0 0 39.99 54.99
  L 39.73 53.98
  Z"
/>
<path fill="#163a77" d="
  M 60.03 61.86
  Q 59.02 61.58 58.33 60.49
  L 57.64 57.59
  Q 57.49 56.96 58.14 56.99
  L 70.04 57.65
  Q 71.02 57.71 71.28 58.66
  C 71.84 60.73 73.97 61.73 76.07 61.68
  Q 81.04 61.56 83.86 56.84
  Q 84.28 58.65 85.75 58.70
  C 96.80 59.08 109.84 60.08 120.15 55.44
  Q 120.71 55.19 120.50 55.77
  L 120.32 56.28
  A 0.58 0.52 -12.9 0 1 120.13 56.55
  Q 115.38 60.39 109.24 61.34
  Q 96.58 63.30 87.99 62.50
  Q 82.15 61.95 77.51 62.96
  C 72.87 63.98 72.12 61.70 68.26 61.42
  Q 63.27 61.05 60.98 61.11
  Q 60.34 61.12 60.03 61.86
  Z"
/>
<path fill="#a2a4b4" d="
  M 46.47 59.97
  Q 47.50 61.18 48.54 62.27
  C 51.81 65.69 56.08 64.55 58.33 60.49
  Q 59.02 61.58 60.03 61.86
  Q 59.32 64.10 59.36 65.75
  Q 60.01 66.82 57.03 66.79
  Q 55.98 66.25 54.71 66.77
  Q 54.28 66.94 53.83 66.87
  Q 52.57 66.67 51.39 66.88
  Q 47.84 67.46 48.45 65.79
  L 46.43 61.46
  L 46.47 59.97
  Z"
/>
<path fill="#db2134" d="
  M 116.2329 81.7290
  A 7.99 7.99 0.0 0 1 108.2289 89.7051
  L 102.4089 89.6949
  A 7.99 7.99 0.0 0 1 94.4329 81.6910
  L 94.4471 73.5310
  A 7.99 7.99 0.0 0 1 102.4511 65.5549
  L 108.2711 65.5651
  A 7.99 7.99 0.0 0 1 116.2471 73.5690
  L 116.2329 81.7290
  Z
  M 109.4860 74.3872
  A 3.15 3.15 0.0 0 0 106.3415 71.2317
  L 104.4415 71.2284
  A 3.15 3.15 0.0 0 0 101.2860 74.3728
  L 101.2740 81.2328
  A 3.15 3.15 0.0 0 0 104.4185 84.3883
  L 106.3185 84.3916
  A 3.15 3.15 0.0 0 0 109.4740 81.2472
  L 109.4860 74.3872
  Z"
/>
<path fill="#db2134" d="
  M 48.45 65.79
  Q 47.84 67.46 51.39 66.88
  L 53.40 76.77
  A 0.62 0.61 46.2 0 0 54.60 76.80
  L 57.03 66.79
  Q 60.01 66.82 59.36 65.75
  L 67.42 66.02
  A 0.78 0.78 0.0 0 1 68.18 66.80
  L 68.22 88.27
  Q 68.23 89.53 66.98 89.52
  L 62.43 89.49
  Q 61.14 89.48 61.17 88.18
  L 61.47 76.38
  A 0.23 0.22 9.6 0 0 61.30 76.15
  L 61.01 76.08
  A 0.47 0.46 -76.1 0 0 60.44 76.43
  L 57.83 88.25
  Q 57.55 89.52 56.26 89.50
  L 51.54 89.43
  A 1.07 1.07 0.0 0 1 50.51 88.60
  L 47.72 76.30
  Q 47.66 76.01 47.36 76.01
  L 46.89 76.01
  Q 46.74 76.02 46.74 76.17
  L 47.04 88.22
  Q 47.08 89.51 45.78 89.51
  L 41.33 89.50
  Q 40.15 89.50 40.15 88.33
  L 40.14 66.45
  A 0.43 0.42 -85.4 0 1 40.63 66.03
  Q 44.52 66.68 48.45 65.79
  Z"
/>
<path fill="#db2134" d="
  M 26.33 78.40
  C 29.04 82.57 28.12 89.33 21.99 89.43
  Q 14.49 89.55 7.00 89.50
  A 0.75 0.75 0.0 0 1 6.26 88.76
  L 6.18 66.56
  A 0.58 0.57 -89.5 0 1 6.76 65.98
  Q 14.00 66.06 21.25 66.01
  C 26.39 65.98 28.69 69.54 27.53 74.30
  C 27.31 75.25 26.55 76.32 26.20 77.47
  A 1.13 1.10 -53.6 0 0 26.33 78.40
  Z
  M 16.09 76.56
  Q 16.62 75.73 17.59 75.93
  Q 19.92 76.40 20.76 74.33
  A 1.84 1.84 0.0 0 0 19.08 71.80
  L 14.26 71.74
  A 1.00 0.99 0.3 0 0 13.24 72.74
  L 13.32 83.55
  A 0.98 0.98 0.0 0 0 14.30 84.52
  L 18.46 84.50
  A 2.31 2.30 -83.9 0 0 20.71 82.67
  C 21.44 79.27 16.67 80.27 14.96 79.99
  Q 14.00 79.83 14.53 79.01
  L 16.09 76.56
  Z"
/>
<rect fill="#db2134" x="30.20" y="66.03" width="6.84" height="23.46" rx="0.84"/>
<path fill="#db2134" d="
  M 91.03 78.34
  Q 91.44 79.20 91.88 80.04
  C 93.49 83.10 92.75 86.93 90.00 88.51
  Q 88.19 89.55 83.89 89.52
  Q 77.75 89.48 71.79 89.46
  A 0.71 0.70 -90.0 0 1 71.09 88.75
  L 71.23 66.71
  A 0.71 0.71 0.0 0 1 71.97 66.00
  Q 77.98 66.19 84.07 66.07
  C 92.54 65.90 94.40 69.73 91.02 77.37
  Q 90.81 77.86 91.03 78.34
  Z
  M 79.44 79.23
  Q 80.25 75.67 83.75 75.75
  A 1.69 1.69 0.0 0 0 85.43 74.44
  L 85.53 73.98
  Q 85.96 72.04 83.98 71.95
  L 79.26 71.74
  A 1.23 1.22 -89.1 0 0 77.98 72.99
  L 78.17 83.48
  A 1.18 1.17 -2.3 0 0 79.43 84.63
  C 81.62 84.49 85.95 84.81 85.52 81.38
  Q 85.45 80.82 84.90 80.65
  Q 82.70 79.97 80.42 80.29
  A 0.88 0.88 0.0 0 1 79.44 79.23
  Z"
/>
<ellipse fill="#080b0d" cx="0.00" cy="0.00" transform="translate(116.99,88.59) rotate(-32.3)" rx="1.02" ry="0.68"/>
<path fill="#163a77" d="
  M 1.17 99.30
  Q 0.07 99.67 0.96 98.93
  Q 6.83 94.01 14.99 93.30
  Q 24.48 92.47 34.00 92.94
  C 56.44 94.06 78.84 95.84 101.25 95.50
  C 105.10 95.45 114.22 94.05 118.16 91.21
  Q 121.80 88.59 118.90 92.01
  C 113.31 98.62 99.10 99.35 91.25 99.07
  Q 61.49 98.03 31.75 96.29
  Q 20.68 95.65 9.69 96.93
  C 6.77 97.27 3.99 98.34 1.17 99.30
  Z"
/>
</svg>
