<?xml version="1.0" encoding="UTF-8" standalone="no"?>
<!DOCTYPE svg PUBLIC "-//W3C//DTD SVG 1.1//EN" "http://www.w3.org/Graphics/SVG/1.1/DTD/svg11.dtd">
<svg xmlns="http://www.w3.org/2000/svg" version="1.1" viewBox="0.00 0.00 185.00 113.00">
<path fill="#0344a1" d="
  M 61.21 14.89
  L 61.96 14.30
  Q 62.35 13.99 62.27 13.49
  Q 61.45 8.53 66.48 7.98
  A 1.52 1.51 -67.8 0 0 67.28 7.64
  C 68.19 6.89 68.88 5.95 70.10 5.81
  C 73.65 5.39 76.53 9.33 73.78 12.30
  A 1.17 1.16 63.2 0 0 73.48 13.22
  Q 74.03 17.59 69.73 18.24
  A 1.04 1.02 9.3 0 0 68.98 18.77
  Q 68.61 19.46 68.25 20.15
  C 66.35 23.66 62.21 21.74 60.65 19.12
  C 59.07 16.48 60.60 14.12 56.71 12.72
  Q 56.22 12.54 56.03 12.05
  C 54.91 9.17 53.48 7.23 50.01 7.96
  Q 49.58 8.06 49.22 7.80
  Q 49.08 7.69 49.06 7.51
  Q 49.01 7.12 49.41 7.13
  C 50.74 7.15 51.65 6.51 52.84 6.60
  C 55.52 6.80 56.55 8.66 57.06 10.89
  Q 57.18 11.43 57.72 11.56
  Q 60.33 12.20 60.78 14.73
  A 0.27 0.27 0.0 0 0 61.21 14.89
  Z
  M 68.63 17.16
  C 70.43 16.52 71.60 15.68 71.92 13.67
  C 72.17 12.05 73.28 10.96 72.91 9.46
  C 72.27 6.83 69.53 7.11 67.94 8.88
  A 1.21 1.21 0.0 0 1 67.23 9.25
  Q 63.14 9.75 63.48 13.91
  Q 63.52 14.35 63.21 14.66
  L 61.77 16.11
  Q 61.35 16.54 61.40 17.13
  C 61.79 21.29 66.55 21.81 67.95 17.84
  Q 68.13 17.34 68.63 17.16
  Z"
/>
<path fill="#0344a1" d="
  M 105.52 31.72
  C 104.72 30.00 104.14 28.68 103.82 26.70
  C 102.73 19.93 100.77 21.52 95.36 21.57
  Q 94.67 21.58 95.16 21.09
  Q 95.67 20.57 95.97 19.91
  A 0.50 0.50 0.0 0 0 95.45 19.20
  L 94.51 19.34
  A 0.60 0.60 0.0 0 1 94.04 18.29
  C 96.38 16.33 96.56 13.07 98.36 11.23
  C 101.41 8.11 106.43 9.40 109.17 12.46
  C 112.37 16.02 116.07 18.93 119.55 22.21
  Q 119.98 22.62 120.46 22.27
  Q 125.52 18.61 126.77 12.44
  A 0.98 0.97 -82.2 0 1 127.79 11.66
  L 131.25 11.92
  Q 132.18 11.99 131.73 12.80
  Q 130.78 14.51 129.82 16.77
  Q 128.94 18.85 130.97 18.98
  A 0.69 0.69 0.0 0 0 131.56 18.73
  L 136.00 13.30
  A 0.52 0.52 0.0 0 1 136.72 13.22
  L 139.71 15.60
  A 0.51 0.51 0.0 0 1 139.67 16.43
  Q 138.59 17.11 137.55 18.01
  Q 136.96 18.53 137.05 18.73
  A 1.37 1.32 -22.1 0 0 138.78 19.42
  L 142.56 17.98
  Q 143.02 17.81 143.02 18.30
  L 143.02 22.40
  Q 143.02 22.86 142.57 22.94
  L 134.89 24.24
  A 0.54 0.54 0.0 0 0 134.80 25.28
  L 138.15 26.45
  Q 138.80 26.67 138.65 27.35
  L 138.06 30.05
  Q 137.90 30.78 137.21 30.50
  Q 132.65 28.63 127.79 28.34
  A 1.22 1.22 0.0 0 0 126.67 30.18
  Q 136.07 46.03 142.97 63.12
  Q 143.37 64.10 142.46 63.55
  L 137.61 60.59
  Q 136.24 59.76 136.76 61.27
  L 139.23 68.47
  A 1.01 1.01 0.0 0 1 138.26 69.81
  L 135.53 69.75
  A 1.20 1.17 -66.4 0 0 134.67 70.10
  L 131.89 72.92
  A 1.11 1.11 0.0 0 1 130.01 72.32
  L 126.61 52.63
  Q 126.52 52.09 126.13 51.70
  C 123.94 49.53 121.71 46.95 119.15 45.27
  A 0.70 0.70 0.0 0 0 118.07 45.89
  L 118.31 49.87
  Q 118.33 50.32 118.02 50.64
  L 117.22 51.47
  A 2.16 2.14 -28.2 0 0 116.64 53.36
  Q 117.12 55.85 115.50 56.95
  C 109.08 61.29 105.31 64.46 96.91 64.51
  C 91.76 64.55 87.42 64.08 81.88 65.53
  C 79.53 66.15 77.42 65.75 75.46 64.69
  A 1.88 1.88 0.0 0 0 73.44 64.84
  C 68.65 68.38 63.53 73.97 57.43 73.95
  A 1.05 1.01 67.6 0 1 56.68 73.62
  Q 54.39 71.18 50.99 71.55
  A 1.84 1.84 0.0 0 1 49.30 70.81
  Q 45.73 65.97 46.84 60.25
  Q 47.24 58.22 48.68 57.84
  Q 52.75 56.76 56.61 55.05
  Q 57.02 54.87 56.74 54.52
  L 53.27 50.21
  A 1.14 1.09 -67.4 0 1 53.05 49.64
  Q 52.77 46.41 50.90 43.75
  A 0.62 0.61 -40.3 0 1 50.97 42.96
  Q 52.54 41.39 50.83 39.98
  A 0.49 0.49 0.0 0 1 50.86 39.20
  Q 52.17 38.29 51.92 36.78
  A 2.43 2.41 72.9 0 1 53.28 34.19
  Q 56.94 32.48 61.03 32.30
  Q 61.90 32.26 62.30 31.49
  L 62.82 30.53
  Q 63.12 29.95 62.47 30.02
  L 56.25 30.68
  Q 55.67 30.74 55.93 30.21
  L 56.15 29.77
  Q 56.40 29.28 56.94 29.25
  L 64.30 28.77
  A 0.53 0.53 0.0 0 0 64.65 27.87
  L 58.53 21.55
  A 0.64 0.64 0.0 0 1 58.45 20.77
  L 58.67 20.42
  A 0.35 0.35 0.0 0 1 59.22 20.36
  L 65.27 26.83
  Q 65.74 27.32 66.20 26.83
  Q 70.56 22.25 75.69 18.77
  Q 77.40 17.61 78.35 15.87
  C 80.52 11.91 83.71 6.86 88.67 10.57
  C 89.98 11.55 90.94 11.68 92.37 12.14
  A 0.37 0.37 0.0 0 1 92.36 12.85
  Q 91.75 13.02 91.37 13.52
  Q 90.93 14.08 91.61 14.28
  Q 92.11 14.42 92.52 14.75
  A 0.38 0.38 0.0 0 1 92.39 15.41
  Q 87.49 16.95 84.68 21.19
  A 0.68 0.67 -60.0 0 0 84.94 22.16
  L 89.31 24.41
  Q 90.08 24.80 89.35 25.27
  L 88.61 25.74
  A 0.54 0.54 0.0 0 0 88.57 26.62
  L 89.46 27.30
  Q 89.94 27.68 89.35 27.82
  Q 86.10 28.61 83.71 30.94
  Q 83.02 31.61 83.98 31.55
  Q 94.64 30.94 105.24 32.11
  Q 105.73 32.17 105.52 31.72
  Z
  M 54.93 61.44
  L 56.11 60.42
  Q 56.55 60.04 56.07 59.70
  L 55.84 59.54
  Q 54.35 58.50 56.16 58.70
  Q 60.73 59.19 64.65 61.50
  A 2.31 2.31 0.0 0 1 65.73 64.01
  L 64.67 68.67
  Q 64.52 69.35 65.10 68.97
  C 66.53 68.02 67.69 66.89 69.21 66.10
  Q 71.63 64.85 73.30 63.06
  A 1.77 1.76 37.2 0 1 75.51 62.76
  C 79.17 64.98 81.69 63.35 84.91 63.11
  C 91.07 62.64 98.82 63.60 104.16 61.75
  Q 110.14 59.68 114.57 54.71
  A 1.13 1.13 0.0 0 0 114.68 53.35
  Q 114.14 52.50 112.73 52.74
  Q 110.84 53.05 109.10 53.80
  Q 109.04 53.83 108.99 53.78
  L 108.84 53.57
  Q 108.69 53.38 108.89 53.25
  Q 111.51 51.48 114.63 50.96
  Q 115.21 50.87 115.48 50.34
  Q 116.73 47.84 117.11 45.06
  A 0.72 0.70 18.9 0 0 116.75 44.34
  Q 116.17 44.02 115.68 44.66
  Q 114.59 46.06 113.25 47.21
  Q 111.29 48.89 110.14 47.09
  Q 107.90 43.58 106.04 40.02
  Q 105.45 38.88 104.90 40.05
  L 104.57 40.76
  Q 104.33 41.26 103.89 40.91
  L 103.67 40.73
  Q 103.29 40.43 103.52 40.01
  L 104.06 39.03
  A 0.98 0.98 0.0 0 0 104.06 38.07
  Q 103.76 37.53 103.18 37.57
  Q 102.78 37.60 102.43 38.01
  Q 101.90 38.62 101.78 38.86
  Q 100.68 41.10 100.62 38.60
  Q 100.60 37.60 101.52 36.70
  C 104.41 33.86 108.14 40.61 109.33 42.39
  Q 109.88 43.23 110.33 42.33
  L 110.89 41.19
  A 1.59 1.58 40.3 0 0 110.75 39.55
  L 106.91 34.33
  A 1.25 1.23 -13.2 0 0 106.10 33.84
  C 98.28 32.70 90.19 32.96 82.30 33.01
  Q 81.66 33.01 81.43 33.61
  L 79.58 38.39
  A 0.51 0.51 0.0 0 1 79.17 38.71
  L 78.78 38.75
  Q 78.32 38.80 78.41 38.34
  Q 79.82 31.05 86.35 27.62
  Q 86.87 27.34 86.74 26.77
  Q 86.54 25.89 87.28 25.42
  Q 87.81 25.09 87.25 24.79
  C 84.98 23.60 81.95 21.62 80.12 24.89
  C 77.13 30.22 70.36 33.44 65.48 36.82
  A 0.81 0.80 -42.9 0 1 64.51 36.79
  L 64.28 36.61
  A 0.29 0.29 0.0 0 1 64.30 36.14
  Q 70.50 31.85 76.78 27.52
  C 78.80 26.13 78.52 22.86 82.41 21.92
  A 1.08 1.07 5.8 0 0 83.13 21.34
  Q 85.10 17.29 89.19 15.42
  Q 89.74 15.17 89.52 14.60
  Q 89.23 13.87 89.60 13.28
  Q 89.84 12.88 89.47 12.60
  Q 88.83 12.10 87.02 10.97
  C 83.22 8.58 80.54 15.59 79.15 17.52
  Q 78.24 18.79 76.44 20.04
  Q 66.48 26.98 59.75 37.16
  A 0.44 0.42 -64.5 0 1 59.27 37.34
  L 58.82 37.21
  Q 58.37 37.08 58.61 36.68
  L 59.80 34.74
  Q 60.17 34.15 59.47 34.14
  Q 56.76 34.12 54.45 35.49
  A 0.75 0.75 0.0 0 0 54.23 36.57
  Q 56.79 40.19 60.56 39.09
  C 64.77 37.87 68.40 39.16 71.92 41.59
  Q 72.33 41.86 71.97 42.20
  L 71.70 42.45
  A 0.62 0.62 0.0 0 1 70.99 42.55
  Q 68.82 41.43 66.49 40.53
  C 63.15 39.24 61.65 40.75 58.95 41.66
  Q 58.45 41.83 58.00 41.57
  L 54.19 39.36
  Q 53.47 38.94 53.41 39.77
  L 53.38 40.16
  Q 53.32 41.01 53.93 41.62
  Q 57.69 45.35 62.94 44.95
  A 0.39 0.39 0.0 0 1 63.32 45.50
  L 63.11 45.93
  Q 62.72 46.76 61.81 46.77
  Q 56.78 46.82 53.37 43.25
  A 0.34 0.34 0.0 0 0 52.78 43.44
  L 52.70 44.01
  A 0.41 0.38 -59.6 0 0 52.76 44.28
  Q 57.75 51.93 66.96 50.44
  A 0.72 0.67 -67.4 0 0 67.27 50.30
  L 69.82 48.43
  A 0.99 0.96 31.3 0 1 70.56 48.26
  Q 73.61 48.77 76.49 49.83
  Q 79.57 50.96 76.32 51.16
  Q 75.73 51.20 72.77 49.99
  A 3.07 3.06 -50.5 0 0 69.95 50.26
  L 69.31 50.68
  A 1.06 1.05 42.0 0 0 69.41 52.50
  C 73.08 54.37 77.66 53.18 81.65 52.81
  A 0.49 0.48 65.4 0 1 82.07 52.97
  L 82.50 53.45
  A 0.34 0.33 -26.1 0 1 82.31 54.00
  Q 75.66 55.19 68.97 54.40
  A 1.30 1.29 -16.6 0 1 68.13 53.95
  Q 66.44 51.96 63.88 52.12
  C 59.70 52.38 58.35 51.49 54.93 49.09
  Q 53.95 48.40 54.56 49.43
  Q 56.08 52.01 58.53 53.75
  Q 58.91 54.01 59.36 53.91
  Q 64.18 52.86 67.92 56.12
  C 68.79 56.87 70.12 57.27 71.43 57.11
  Q 76.45 56.50 77.71 61.51
  Q 77.83 61.98 77.37 62.12
  L 77.06 62.21
  A 0.61 0.60 71.4 0 1 76.31 61.83
  Q 74.58 56.96 70.17 59.36
  Q 69.66 59.64 69.26 59.21
  C 62.29 51.93 57.06 56.89 49.56 58.92
  Q 49.05 59.05 48.86 59.53
  Q 46.62 64.97 50.32 69.39
  A 1.05 1.05 0.0 0 0 51.23 69.75
  Q 54.63 69.38 56.78 71.90
  Q 57.10 72.28 57.61 72.31
  C 59.91 72.45 61.72 71.79 62.77 69.57
  C 63.59 67.84 64.99 63.39 62.88 62.06
  Q 59.33 59.83 55.14 61.77
  Q 53.87 62.36 54.93 61.44
  Z
  M 98.36 18.40
  Q 98.09 19.07 97.57 19.58
  A 0.34 0.34 0.0 0 0 97.87 20.16
  Q 103.88 18.92 104.88 24.33
  C 106.15 31.12 108.58 34.74 112.63 39.54
  Q 112.95 39.93 112.74 40.38
  Q 111.95 42.09 111.17 43.80
  Q 110.49 45.28 111.82 45.82
  Q 112.35 46.04 112.75 45.63
  L 115.43 42.86
  A 0.76 0.75 26.8 0 1 116.08 42.65
  Q 116.97 42.78 117.62 43.41
  A 0.30 0.29 -86.3 0 0 118.06 43.02
  C 113.81 37.27 110.59 32.72 107.87 26.54
  A 0.45 0.44 67.4 0 1 108.11 25.95
  L 108.38 25.84
  Q 109.05 25.57 109.35 26.22
  C 116.20 41.00 126.51 51.78 139.51 60.39
  Q 141.01 61.38 140.22 59.77
  L 137.74 54.73
  A 1.58 1.57 3.0 0 0 137.15 54.08
  Q 126.81 47.80 120.50 37.43
  Q 120.42 37.30 120.54 37.20
  L 120.82 36.95
  Q 121.28 36.55 121.61 37.07
  Q 127.06 45.64 135.43 51.37
  Q 136.59 52.17 136.01 50.89
  Q 132.14 42.41 127.32 33.98
  C 123.51 27.32 116.49 20.96 110.96 16.54
  C 107.60 13.84 104.34 7.52 99.32 12.46
  C 97.99 13.77 97.45 16.07 96.27 17.80
  Q 95.90 18.35 96.54 18.19
  L 97.89 17.86
  Q 98.65 17.67 98.36 18.40
  Z
  M 129.48 20.40
  C 126.88 19.03 129.11 15.20 129.88 13.34
  Q 130.11 12.79 129.52 12.79
  L 128.51 12.79
  Q 128.01 12.79 127.89 13.29
  Q 126.43 19.62 121.21 23.46
  Q 121.04 23.58 121.18 23.74
  L 125.01 27.96
  Q 125.20 28.17 125.42 27.99
  Q 132.11 22.45 140.88 22.08
  Q 141.89 22.04 141.89 21.03
  L 141.88 20.17
  A 0.64 0.63 74.9 0 0 140.93 19.62
  Q 138.59 20.96 136.14 20.07
  A 0.81 0.80 18.3 0 1 135.64 19.08
  Q 136.11 17.57 137.46 16.75
  A 0.74 0.73 -29.6 0 0 137.73 15.79
  Q 137.41 15.16 136.77 14.92
  A 0.79 0.78 -62.8 0 0 135.83 15.23
  C 134.55 17.26 132.63 19.99 130.39 20.52
  Q 129.92 20.63 129.48 20.40
  Z
  M 129.62 26.53
  Q 128.95 26.87 129.68 27.04
  L 136.74 28.78
  Q 137.23 28.91 137.20 28.39
  L 137.18 28.04
  A 1.02 1.02 0.0 0 0 136.39 27.11
  Q 134.53 26.68 133.08 25.43
  A 0.93 0.92 -38.0 0 0 132.05 25.31
  L 129.62 26.53
  Z
  M 130.67 55.48
  A 0.31 0.31 0.0 0 0 130.56 55.30
  L 128.69 53.88
  A 0.31 0.31 0.0 0 0 128.19 54.18
  L 131.13 71.28
  A 0.31 0.31 0.0 0 0 131.65 71.44
  L 133.56 69.47
  A 0.31 0.31 0.0 0 0 133.64 69.19
  L 130.67 55.48
  Z
  M 135.79 68.90
  L 137.61 68.31
  A 0.41 0.41 0.0 0 0 137.88 67.80
  L 137.18 65.62
  A 9.34 1.11 72.3 0 0 133.29 57.06
  L 132.79 57.21
  A 9.34 1.11 72.3 0 0 134.57 66.45
  L 135.27 68.63
  A 0.41 0.41 0.0 0 0 135.79 68.90
  Z"
/>
<path fill="#0344a1" d="
  M 51.13 18.95
  Q 50.84 17.82 49.49 17.62
  C 46.96 17.24 45.62 15.99 45.80 13.23
  A 1.00 0.99 18.7 0 0 45.35 12.33
  Q 44.50 11.78 44.05 10.88
  A 0.25 0.22 41.4 0 1 44.03 10.72
  L 44.21 9.96
  Q 44.34 9.44 44.67 9.86
  Q 46.29 11.91 47.19 14.30
  Q 47.91 16.20 50.85 16.24
  A 1.03 1.02 -15.9 0 1 51.72 16.72
  Q 52.81 18.42 54.55 19.43
  Q 55.56 20.01 54.40 20.04
  Q 53.01 20.07 52.06 21.06
  A 1.60 1.59 17.0 0 1 51.22 21.50
  C 48.83 21.94 46.48 22.02 45.81 24.91
  Q 45.69 25.43 45.22 25.68
  Q 44.01 26.30 43.40 27.59
  Q 43.19 28.03 43.27 28.52
  Q 43.65 30.85 46.16 31.00
  Q 46.59 31.03 46.92 30.77
  L 48.39 29.62
  Q 48.79 29.30 49.31 29.28
  Q 52.10 29.14 53.14 26.59
  Q 53.35 26.08 53.90 25.97
  Q 56.04 25.57 56.93 23.23
  Q 57.08 22.84 57.43 22.86
  Q 57.98 22.90 57.95 23.45
  Q 57.76 26.57 54.76 27.24
  A 0.87 0.86 -87.6 0 0 54.13 27.82
  Q 53.07 31.15 49.50 30.66
  A 0.93 0.93 0.0 0 0 48.67 30.97
  C 45.76 34.39 40.74 31.26 41.89 27.45
  C 42.24 26.28 43.09 25.79 43.97 24.94
  Q 44.31 24.62 44.41 24.16
  Q 45.39 19.96 49.73 20.54
  A 1.28 1.27 -3.7 0 0 51.13 18.95
  Z"
/>
<ellipse fill="#0344a1" cx="0.00" cy="0.00" transform="translate(67.50,13.23) rotate(127.8)" rx="4.06" ry="0.71"/>
<rect fill="#0344a1" x="-4.17" y="-0.63" transform="translate(52.61,13.52) rotate(41.2)" width="8.34" height="1.26" rx="0.61"/>
<circle fill="#0344a1" cx="85.68" cy="13.16" r="0.95"/>
<circle fill="#0344a1" cx="101.58" cy="15.04" r="1.07"/>
<ellipse fill="#0344a1" cx="0.00" cy="0.00" transform="translate(50.02,25.33) rotate(-36.6)" rx="3.52" ry="0.70"/>
<circle fill="#0344a1" cx="83.48" cy="25.70" r="0.90"/>
<path fill="#0344a1" d="
  M 78.10 33.45
  A 0.22 0.22 0.0 0 1 78.14 33.76
  L 78.04 33.89
  A 6.11 0.59 -53.2 0 1 73.91 38.43
  L 73.70 38.27
  A 6.11 0.59 -53.2 0 1 76.89 33.03
  L 76.99 32.89
  A 0.22 0.22 0.0 0 1 77.30 32.85
  L 78.10 33.45
  Z"
/>
<path fill="#0344a1" d="
  M 99.55 41.63
  C 93.53 44.79 88.46 41.09 83.24 44.12
  Q 81.69 45.02 82.55 43.41
  C 84.13 40.49 90.16 40.53 93.06 41.16
  Q 96.11 41.83 99.48 40.18
  Q 99.95 39.95 99.91 40.47
  L 99.85 41.18
  A 0.57 0.56 79.5 0 1 99.55 41.63
  Z"
/>
<path fill="#0344a1" d="
  M 67.42 44.88
  Q 65.48 42.56 62.54 43.58
  Q 62.20 43.69 62.01 43.60
  Q 61.85 43.53 61.79 43.40
  Q 61.63 43.09 61.91 42.88
  C 63.44 41.75 64.80 41.61 66.59 42.58
  Q 69.79 44.32 73.55 44.00
  A 1.12 1.09 -69.9 0 0 74.28 43.65
  Q 77.14 40.62 81.49 41.35
  A 0.41 0.40 -75.1 0 1 81.80 41.89
  L 81.67 42.24
  Q 81.42 42.88 80.73 42.78
  Q 78.48 42.46 76.51 43.55
  A 1.11 1.10 43.4 0 0 76.57 45.51
  C 80.32 47.34 84.02 45.99 87.59 44.91
  Q 88.10 44.76 88.25 45.27
  L 88.33 45.52
  Q 88.48 46.04 87.97 46.20
  Q 85.28 47.04 82.51 47.75
  C 79.02 48.64 76.51 47.15 73.45 45.88
  C 69.95 44.44 66.87 49.18 62.56 48.76
  Q 62.29 48.73 62.30 48.46
  L 62.32 48.08
  Q 62.33 47.70 62.72 47.70
  Q 65.49 47.69 67.40 45.67
  Q 67.77 45.29 67.42 44.88
  Z"
/>
<path fill="#0344a1" d="
  M 91.94 44.83
  C 94.38 45.24 97.39 45.23 99.24 43.65
  C 101.17 42.00 103.70 42.27 105.78 43.52
  A 0.29 0.29 0.0 0 1 105.89 43.90
  L 105.77 44.15
  Q 105.55 44.62 105.06 44.44
  C 101.27 43.02 100.62 45.71 97.74 46.35
  Q 95.06 46.96 92.40 46.39
  A 1.06 1.06 0.0 0 1 91.60 45.61
  L 91.52 45.28
  A 0.37 0.37 0.0 0 1 91.94 44.83
  Z"
/>
<path fill="#0344a1" d="
  M 101.73 48.41
  L 93.88 52.18
  Q 93.27 52.47 92.81 51.98
  L 91.22 50.27
  Q 90.79 49.81 90.17 49.74
  Q 85.72 49.29 81.89 51.51
  Q 81.30 51.85 80.83 51.35
  L 80.63 51.12
  Q 80.22 50.69 80.76 50.46
  Q 85.72 48.28 91.11 47.74
  A 0.91 0.89 -20.3 0 1 91.93 48.11
  L 92.42 48.79
  A 2.52 2.51 -30.0 0 0 95.49 49.61
  L 103.73 45.87
  A 0.71 0.71 0.0 0 1 104.73 46.63
  C 104.03 51.39 99.48 54.23 95.32 55.78
  Q 95.14 55.85 95.06 55.67
  L 94.94 55.40
  A 0.50 0.50 0.0 0 1 95.16 54.75
  C 97.42 53.53 101.36 51.14 102.17 48.80
  Q 102.42 48.08 101.73 48.41
  Z"
/>
<path fill="#0344a1" d="
  M 102.83 56.74
  Q 107.18 58.55 110.49 55.10
  Q 110.63 54.95 110.79 55.09
  L 111.07 55.34
  Q 111.35 55.59 111.10 55.87
  Q 109.25 58.01 106.52 58.95
  A 1.14 1.13 41.9 0 1 105.91 58.98
  L 101.89 57.97
  Q 101.28 57.82 100.71 58.06
  C 94.16 60.85 91.82 61.55 84.92 61.21
  A 0.43 0.43 0.0 0 1 84.52 60.86
  L 84.44 60.39
  Q 84.39 60.10 84.69 60.09
  L 90.65 59.91
  Q 92.63 59.85 91.41 58.29
  L 90.01 56.52
  Q 88.96 55.17 87.40 55.87
  C 83.12 57.79 81.28 60.01 76.59 56.67
  Q 76.36 56.51 76.51 56.27
  L 76.70 55.98
  Q 76.86 55.75 77.10 55.89
  C 81.37 58.44 85.21 55.02 89.21 53.59
  Q 90.01 53.31 90.50 54.00
  L 93.60 58.41
  Q 93.88 58.81 94.35 58.67
  C 99.14 57.25 100.80 55.25 103.64 52.10
  C 105.96 49.52 108.09 49.24 111.31 49.62
  Q 111.64 49.65 111.55 49.97
  L 111.37 50.63
  Q 111.29 50.93 110.98 50.94
  L 106.80 51.12
  A 0.69 0.66 17.9 0 0 106.30 51.36
  L 102.59 55.73
  Q 102.02 56.40 102.83 56.74
  Z"
/>
<path fill="#005095" d="
  M 52.18 91.15
  Q 51.52 91.05 51.52 91.75
  L 51.57 105.16
  Q 51.57 106.64 50.09 106.64
  L 48.30 106.63
  Q 46.74 106.62 46.75 105.05
  L 46.80 83.52
  A 1.53 1.53 0.0 0 1 48.19 82.00
  C 49.99 81.84 52.41 81.37 53.58 83.36
  Q 57.95 90.78 61.70 97.93
  Q 62.49 99.43 62.48 97.73
  L 62.43 83.50
  A 1.08 1.08 0.0 0 1 63.50 82.42
  L 101.72 82.41
  Q 102.77 82.41 102.81 83.47
  L 102.86 84.71
  Q 102.90 85.83 101.78 85.83
  L 67.76 85.79
  A 0.71 0.70 -0.0 0 0 67.05 86.49
  L 67.04 105.50
  A 1.11 1.11 0.0 0 1 65.97 106.61
  C 63.90 106.69 61.24 107.14 60.01 104.97
  Q 56.26 98.33 52.67 91.59
  Q 52.59 91.44 52.45 91.34
  Q 52.23 91.16 52.18 91.15
  Z"
/>
<path fill="#005095" d="
  M 139.84 84.82
  A 0.80 0.80 0.0 0 1 139.08 85.66
  L 138.95 85.67
  A 15.49 1.24 -3.0 0 1 123.42 85.24
  L 123.35 83.92
  A 15.49 1.24 -3.0 0 1 138.75 81.87
  L 138.88 81.86
  A 0.80 0.80 0.0 0 1 139.72 82.62
  L 139.84 84.82
  Z"
/>
<path fill="#005095" d="
  M 110.46 92.77
  Q 110.27 96.63 110.48 100.49
  C 110.60 102.50 111.86 103.39 113.74 103.38
  A 0.68 0.67 82.8 0 1 114.39 103.89
  Q 114.63 104.85 114.47 105.80
  Q 114.37 106.32 113.86 106.44
  C 104.16 108.70 105.72 98.54 105.81 93.02
  Q 105.82 92.53 105.37 92.36
  Q 105.01 92.22 104.59 92.25
  A 0.66 0.66 0.0 0 1 103.89 91.65
  L 103.72 89.87
  A 0.80 0.79 -7.3 0 1 104.39 89.01
  L 105.27 88.86
  A 0.64 0.62 85.8 0 0 105.80 88.23
  L 105.74 83.91
  Q 105.72 82.03 107.59 82.11
  L 108.56 82.16
  Q 110.37 82.25 110.38 84.06
  L 110.41 88.53
  A 0.56 0.55 -3.2 0 0 111.03 89.08
  L 113.36 88.82
  A 1.11 1.10 -4.6 0 1 114.59 89.86
  L 114.65 91.03
  A 1.17 1.17 0.0 0 1 113.47 92.26
  L 111.01 92.25
  Q 110.49 92.25 110.46 92.77
  Z"
/>
<rect fill="#005095" x="115.81" y="82.23" width="4.74" height="24.42" rx="1.22"/>
<path fill="#005095" d="
  M 127.06 99.78
  C 127.77 102.69 130.90 104.38 133.57 102.61
  C 135.61 101.26 136.48 99.92 139.22 101.12
  Q 139.70 101.33 139.57 101.83
  Q 138.95 104.18 137.58 105.09
  C 129.71 110.32 120.65 104.69 122.59 95.27
  C 123.53 90.72 126.75 88.39 131.35 88.33
  Q 138.75 88.23 140.30 96.46
  Q 140.63 98.19 139.54 98.79
  Q 138.99 99.10 137.47 99.04
  Q 132.50 98.87 127.56 99.12
  Q 126.91 99.15 127.06 99.78
  Z
  M 127.26 95.71
  L 135.28 95.69
  A 0.15 0.15 0.0 0 0 135.43 95.54
  L 135.43 95.51
  A 4.00 3.64 -0.2 0 0 131.41 91.88
  L 131.09 91.88
  A 4.00 3.64 -0.2 0 0 127.11 95.53
  L 127.11 95.56
  A 0.15 0.15 0.0 0 0 127.26 95.71
  Z"
/>
<path fill="#005095" d="
  M 74.72 99.09
  Q 72.83 99.10 73.84 100.70
  Q 75.98 104.06 79.22 103.05
  C 81.48 102.35 82.18 99.73 85.74 101.04
  Q 86.26 101.22 86.14 101.76
  C 85.30 105.79 80.39 107.47 76.85 107.05
  C 65.76 105.76 66.52 88.50 77.19 88.33
  C 83.34 88.23 86.53 91.67 86.92 97.72
  A 1.20 1.20 0.0 0 1 85.73 99.00
  L 74.72 99.09
  Z
  M 73.78 95.67
  L 81.96 95.65
  A 0.11 0.11 0.0 0 0 82.07 95.54
  L 82.07 95.49
  A 4.09 3.60 -0.2 0 0 77.96 91.90
  L 77.74 91.90
  A 4.09 3.60 -0.2 0 0 73.67 95.51
  L 73.67 95.56
  A 0.11 0.11 0.0 0 0 73.78 95.67
  Z"
/>
<path fill="#005095" d="
  M 92.69 93.52
  Q 93.05 95.03 95.01 95.29
  Q 97.66 95.63 100.09 96.68
  C 105.30 98.94 104.79 104.42 99.80 106.36
  C 96.15 107.77 87.57 107.12 87.67 101.44
  A 0.66 0.65 -89.1 0 1 88.32 100.80
  L 90.93 100.78
  Q 91.40 100.77 91.68 101.15
  Q 94.24 104.65 98.19 102.93
  A 1.39 1.39 0.0 0 0 98.37 100.48
  C 96.51 99.32 93.60 99.08 91.46 98.27
  C 85.74 96.11 87.90 89.31 93.26 88.57
  C 97.53 87.98 101.04 88.52 103.15 92.38
  A 1.02 1.02 0.0 0 1 102.61 93.83
  C 98.55 95.35 97.54 89.08 93.01 92.62
  A 0.89 0.88 -25.7 0 0 92.69 93.52
  Z"
/>
</svg>
