<?xml version="1.0" encoding="UTF-8" standalone="no"?>
<!DOCTYPE svg PUBLIC "-//W3C//DTD SVG 1.1//EN" "http://www.w3.org/Graphics/SVG/1.1/DTD/svg11.dtd">
<svg xmlns="http://www.w3.org/2000/svg" version="1.1" viewBox="0.00 0.00 24.00 24.00">
<path fill="#000000" d="
  M 24.00 6.62
  L 24.00 9.97
  C 21.79 15.25 16.79 18.91 12.40 22.42
  Q 12.01 22.73 11.62 22.43
  C 6.51 18.41 2.08 14.98 0.00 9.83
  L 0.00 6.58
  Q 5.05 -3.05 11.68 4.59
  Q 12.00 4.96 12.32 4.59
  Q 19.02 -3.06 24.00 6.62
  Z
  M 12.48 7.41
  A 0.54 0.54 0.0 0 1 11.50 7.38
  Q 10.79 5.66 9.68 4.42
  C 7.44 1.87 3.25 2.60 1.99 5.77
  Q 0.31 9.98 3.93 13.69
  Q 7.37 17.21 11.62 20.58
  Q 12.00 20.88 12.38 20.58
  C 15.88 17.82 21.91 13.37 22.50 8.98
  C 22.94 5.81 20.66 2.49 17.17 2.91
  C 14.53 3.23 13.53 5.25 12.48 7.41
  Z"
/>
</svg>
