<?xml version="1.0" encoding="UTF-8"?>
<svg xmlns="http://www.w3.org/2000/svg" xmlns:xlink="http://www.w3.org/1999/xlink" width="32px" height="32px" viewBox="0 0 32 32" version="1.1">
<g id="surface1">
<path style=" stroke:none;fill-rule:nonzero;fill:rgb(0%,0%,0%);fill-opacity:1;" d="M 25.851562 30.691406 C 25.472656 30.835938 25.074219 30.910156 24.671875 30.910156 C 18.929688 30.941406 13.023438 30.941406 6.949219 30.910156 C 5.722656 30.90625 4.730469 29.914062 4.730469 28.691406 L 4.730469 3.179688 C 4.730469 2.027344 5.664062 1.089844 6.820312 1.089844 L 18.289062 1.101562 C 18.675781 1.101562 19.042969 1.25 19.308594 1.519531 L 26.820312 9.050781 C 27.121094 9.34375 27.269531 9.699219 27.269531 10.121094 C 27.277344 16.351562 27.277344 22.570312 27.269531 28.769531 C 27.269531 29.679688 26.679688 30.378906 25.851562 30.691406 Z M 19.648438 10.789062 C 19.085938 10.789062 18.542969 10.5625 18.144531 10.160156 C 17.746094 9.761719 17.523438 9.214844 17.53125 8.648438 L 17.558594 3.5 C 17.566406 3.125 17.382812 2.941406 17.011719 2.941406 L 6.929688 2.960938 C 6.703125 2.964844 6.519531 3.152344 6.519531 3.378906 L 6.519531 28.53125 C 6.515625 28.667969 6.570312 28.800781 6.664062 28.898438 C 6.761719 28.996094 6.894531 29.050781 7.03125 29.050781 L 24.839844 29.050781 C 25.199219 29.050781 25.488281 28.761719 25.488281 28.410156 L 25.488281 11.390625 C 25.488281 11.058594 25.222656 10.789062 24.890625 10.789062 Z M 19.289062 5 L 19.351562 8.359375 C 19.351562 8.746094 19.542969 8.941406 19.929688 8.949219 L 23.589844 9.039062 C 23.976562 9.046875 24.035156 8.914062 23.761719 8.640625 L 19.980469 4.738281 C 19.511719 4.261719 19.285156 4.347656 19.289062 5 Z M 19.289062 5 "/>
<path style=" stroke:none;fill-rule:nonzero;fill:rgb(0%,0%,0%);fill-opacity:1;" d="M 9.523438 8.441406 L 14.84375 8.460938 C 15.273438 8.460938 15.621094 8.8125 15.621094 9.242188 L 15.621094 9.480469 C 15.617188 9.914062 15.269531 10.261719 14.835938 10.257812 L 9.515625 10.242188 C 9.085938 10.238281 8.738281 9.890625 8.738281 9.457031 L 8.742188 9.21875 C 8.742188 8.789062 9.09375 8.4375 9.523438 8.441406 Z M 9.523438 8.441406 "/>
<path style=" stroke:none;fill-rule:nonzero;fill:rgb(0%,0%,0%);fill-opacity:1;" d="M 9.542969 13.566406 L 22.464844 13.613281 C 22.894531 13.613281 23.242188 13.964844 23.242188 14.394531 L 23.238281 14.65625 C 23.238281 15.085938 22.886719 15.433594 22.457031 15.433594 L 9.535156 15.386719 C 9.105469 15.386719 8.757812 15.035156 8.757812 14.605469 L 8.761719 14.34375 C 8.761719 13.914062 9.113281 13.566406 9.542969 13.566406 Z M 9.542969 13.566406 "/>
<path style=" stroke:none;fill-rule:nonzero;fill:rgb(0%,0%,0%);fill-opacity:1;" d="M 9.539062 18.75 L 22.460938 18.75 C 22.902344 18.75 23.261719 19.109375 23.261719 19.550781 L 23.261719 19.75 C 23.261719 20.191406 22.902344 20.550781 22.460938 20.550781 L 9.539062 20.550781 C 9.097656 20.550781 8.738281 20.191406 8.738281 19.75 L 8.738281 19.550781 C 8.738281 19.109375 9.097656 18.75 9.539062 18.75 Z M 9.539062 18.75 "/>
<path style=" stroke:none;fill-rule:nonzero;fill:rgb(0%,0%,0%);fill-opacity:1;" d="M 9.550781 23.910156 L 22.449219 23.910156 C 22.890625 23.910156 23.25 24.269531 23.25 24.710938 L 23.25 24.949219 C 23.25 25.390625 22.890625 25.75 22.449219 25.75 L 9.550781 25.75 C 9.109375 25.75 8.75 25.390625 8.75 24.949219 L 8.75 24.710938 C 8.75 24.269531 9.109375 23.910156 9.550781 23.910156 Z M 9.550781 23.910156 "/>
</g>
</svg>
