<?xml version="1.0" encoding="UTF-8"?>
<svg xmlns="http://www.w3.org/2000/svg" xmlns:xlink="http://www.w3.org/1999/xlink" width="32px" height="32px" viewBox="0 0 32 32" version="1.1">
<g id="surface1">
<path style=" stroke:none;fill-rule:nonzero;fill:rgb(0.392157%,0.392157%,1.176471%);fill-opacity:1;" d="M 32 3.148438 L 32 17.988281 C 31.152344 18.757812 30.109375 19.128906 28.871094 19.109375 C 28.441406 19.101562 28.230469 19.3125 28.230469 19.738281 L 28.230469 22.050781 C 28.226562 22.230469 28.125 22.398438 27.964844 22.480469 C 27.808594 22.566406 27.617188 22.554688 27.46875 22.449219 L 22.449219 19.03125 C 22.257812 18.902344 22.007812 18.890625 21.804688 18.996094 C 21.601562 19.105469 21.472656 19.316406 21.46875 19.550781 L 21.488281 24.210938 C 21.492188 25.234375 20.683594 26.078125 19.660156 26.121094 C 16.980469 26.238281 13.230469 25.550781 10.859375 27 C 9.328125 27.933594 7.816406 28.761719 6.328125 29.480469 C 6.152344 29.5625 5.945312 29.550781 5.78125 29.449219 C 5.617188 29.34375 5.523438 29.164062 5.53125 28.96875 L 5.578125 26.738281 C 5.582031 26.585938 5.523438 26.433594 5.410156 26.324219 C 5.300781 26.210938 5.148438 26.148438 4.988281 26.148438 L 2.429688 26.171875 C 1.898438 26.175781 1.386719 25.96875 1.011719 25.59375 C 0.632812 25.21875 0.421875 24.710938 0.421875 24.179688 L 0.429688 12.980469 C 0.433594 11.964844 1.257812 11.144531 2.269531 11.148438 L 10.539062 11.148438 C 10.683594 11.148438 10.820312 11.09375 10.917969 10.992188 C 11.019531 10.890625 11.074219 10.753906 11.070312 10.609375 C 11.050781 8.902344 11.015625 7.035156 10.96875 5 C 10.929688 3.171875 12.191406 2.601562 13.878906 2.550781 C 20.054688 2.34375 26.09375 2.542969 32 3.148438 Z M 26.929688 18.058594 C 26.925781 17.972656 26.953125 17.890625 27.011719 17.828125 C 27.070312 17.765625 27.152344 17.730469 27.238281 17.730469 L 30.449219 17.671875 C 30.617188 17.664062 30.75 17.527344 30.75 17.359375 L 30.75 4.269531 C 30.75 4.097656 30.609375 3.960938 30.441406 3.960938 L 12.699219 3.980469 C 12.527344 3.980469 12.390625 4.117188 12.390625 4.289062 L 12.390625 17.378906 C 12.390625 17.550781 12.527344 17.691406 12.699219 17.691406 L 22.769531 17.699219 C 22.835938 17.699219 22.898438 17.722656 22.949219 17.761719 L 26.53125 20.28125 C 26.628906 20.347656 26.753906 20.355469 26.859375 20.300781 C 26.964844 20.242188 27.027344 20.128906 27.019531 20.011719 Z M 6.851562 25.378906 C 6.96875 25.945312 6.964844 26.515625 6.828125 27.089844 C 6.703125 27.628906 6.882812 27.765625 7.371094 27.5 C 8.417969 26.933594 9.476562 26.324219 10.550781 25.671875 C 12.878906 24.238281 16.839844 24.851562 19.5 24.851562 C 19.671875 24.851562 19.835938 24.785156 19.960938 24.667969 C 20.082031 24.546875 20.148438 24.382812 20.148438 24.210938 L 20.171875 19.5 C 20.171875 19.125 19.984375 18.945312 19.609375 18.960938 C 17.53125 19.054688 15.488281 19.082031 13.480469 19.050781 C 10.269531 18.988281 10.851562 15.398438 11.089844 13.378906 C 11.15625 12.78125 10.890625 12.480469 10.289062 12.480469 L 2.640625 12.46875 C 2.148438 12.46875 1.75 12.867188 1.75 13.359375 L 1.738281 23.921875 C 1.738281 24.429688 2.15625 24.839844 2.671875 24.839844 L 6.191406 24.839844 C 6.511719 24.839844 6.789062 25.066406 6.851562 25.378906 Z M 6.851562 25.378906 "/>
</g>
</svg>
